<?xml version="1.0" encoding="utf-8"?>
<!-- Generator: Adobe Illustrator 25.4.1, SVG Export Plug-In . SVG Version: 6.00 Build 0)  -->
<svg version="1.1" id="Layer_1" xmlns="http://www.w3.org/2000/svg" xmlns:xlink="http://www.w3.org/1999/xlink" x="0px" y="0px"
	 viewBox="0 0 1024 1024" style="enable-background:new 0 0 1024 1024;" xml:space="preserve">
<style type="text/css">
	.st0{fill:none;stroke:#000000;stroke-miterlimit:10;}
	.st1{fill:#EA0C22;}
	.st2{fill:#FFD78F;}
	.st3{fill:#EA3F3F;}
	.st4{fill:#EC680A;}
</style>
<g>
	<path class="st4" d="M449.5,469L285.5,305.1c-7.1-7.1-18.6-6.5-25.1,1c-0.1,0.1-0.2,0.2-0.3,0.3c-2.5,3-4.9,6-7.2,9.2
		c-1.2,1.5-2.3,3.1-3.5,4.7c-1.1,1.4-2.1,2.9-3.2,4.4c-0.1,0.1-0.2,0.2-0.2,0.4c-0.6,0.8-1.2,1.7-1.7,2.5c-0.7,0.9-1.3,1.9-2,2.9
		c-0.9,1.4-1.9,2.8-2.8,4.3c-1,1.5-1.9,3-2.9,4.5c-0.4,0.6-0.8,1.3-1.2,1.9c-0.4,0.7-0.9,1.5-1.4,2.2c-0.4,0.6-0.7,1.2-1.1,1.8
		c-0.8,1.3-1.5,2.6-2.3,3.8c-0.4,0.7-0.9,1.5-1.3,2.2c-0.7,1.2-1.3,2.3-2,3.5c-0.9,1.7-1.9,3.4-2.8,5.2c-0.9,1.7-1.8,3.5-2.7,5.2
		c-0.9,1.7-1.8,3.5-2.6,5.3c-0.9,1.8-1.7,3.5-2.5,5.3c-0.1,0.2-0.2,0.4-0.3,0.6c-0.7,1.6-1.4,3.2-2.2,4.8c-1.6,3.6-3.1,7.2-4.6,10.9
		c-0.1,0.2-0.1,0.4-0.2,0.5c-0.6,1.7-1.3,3.3-1.9,5c-0.7,1.9-1.4,3.7-2,5.6c-0.7,1.9-1.3,3.7-1.9,5.6c-0.4,1.3-0.9,2.6-1.3,3.9
		c-0.2,0.8-0.5,1.6-0.7,2.3c-0.3,1-0.6,2.1-0.9,3.1c-0.2,0.7-0.4,1.3-0.6,2c-0.4,1.3-0.8,2.6-1.1,3.9c-0.2,0.8-0.4,1.6-0.7,2.4
		c-0.4,1.5-0.8,3-1.2,4.4c-0.5,2-1,4-1.5,6c-0.1,0.6-0.3,1.2-0.4,1.8c-0.3,1.1-0.5,2.2-0.7,3.3c-0.1,0.6-0.3,1.2-0.4,1.9
		c0,0,0,0.1,0,0.1c-0.3,1.4-0.6,2.8-0.9,4.2c-0.2,0.7-0.3,1.5-0.4,2.3c0,0.2-0.1,0.4-0.1,0.6c-0.2,1.2-0.4,2.4-0.7,3.6
		c-0.3,1.5-0.5,2.9-0.7,4.4c-0.1,0.5-0.2,0.9-0.2,1.4c-0.1,0.5-0.2,1-0.2,1.4c-0.2,1.1-0.3,2.1-0.5,3.2c0,0.2-0.1,0.4-0.1,0.6
		c-0.1,0.4-0.1,0.7-0.2,1.1c0,0.4-0.1,0.7-0.1,1.1c-0.1,0.5-0.1,1-0.2,1.5c-0.1,0.8-0.2,1.6-0.3,2.3c0,0.3-0.1,0.6-0.1,1
		c-0.1,0.9-0.2,1.8-0.3,2.8c-0.1,0.7-0.2,1.3-0.2,2c-0.1,0.7-0.1,1.4-0.2,2c0,0.1,0,0.1,0,0.2c0,0.1,0,0.1,0,0.2c0,0.1,0,0.3,0,0.4
		c-0.5,9.7,7.2,18,17.1,18h231.8C452.6,498.2,460.2,479.8,449.5,469z M469,574.6L305.1,738.5c-7.2,7.2-6.5,19,1.4,25.4
		c0.7,0.6,1.5,1.2,2.3,1.8c0.7,0.6,1.5,1.2,2.3,1.8c0.8,0.6,1.5,1.2,2.3,1.8c0.8,0.6,1.5,1.2,2.3,1.8c1.3,1,2.6,2,3.9,2.9
		c0.7,0.5,1.4,1,2.1,1.5c1.5,1.1,2.9,2.1,4.4,3.2c0.4,0.3,0.8,0.6,1.2,0.8c0.4,0.3,0.9,0.6,1.3,0.9c0.1,0.1,0.2,0.2,0.4,0.2
		c0.5,0.3,1,0.7,1.5,1c1,0.7,1.9,1.3,2.9,1.9c1,0.6,1.9,1.3,2.9,1.9c1,0.6,2,1.3,3,1.9c1,0.6,2,1.2,3,1.8c0.9,0.6,1.8,1.1,2.7,1.7
		c1.1,0.7,2.2,1.3,3.3,1.9c0.7,0.4,1.5,0.9,2.3,1.3c1.3,0.7,2.5,1.4,3.8,2.1c0.8,0.4,1.5,0.9,2.3,1.3c2.3,1.3,4.6,2.5,7,3.7
		c1,0.5,2.1,1.1,3.1,1.6c2.4,1.2,4.9,2.4,7.4,3.6c0.7,0.3,1.4,0.7,2.2,1c1.1,0.5,2.1,1,3.2,1.5c0.1,0.1,0.3,0.1,0.5,0.2
		c0.9,0.4,1.8,0.8,2.8,1.2c1.6,0.7,3.3,1.4,5,2.1c0,0,0.1,0,0.1,0c1.2,0.5,2.4,1,3.6,1.5c0.2,0.1,0.4,0.2,0.6,0.2
		c1.3,0.5,2.6,1,3.9,1.5c0.5,0.2,1,0.4,1.5,0.6c1.5,0.6,3,1.1,4.5,1.7c0.2,0.1,0.4,0.2,0.6,0.2c0.5,0.2,1.1,0.4,1.7,0.6
		c0.2,0.1,0.4,0.1,0.6,0.2c1.3,0.4,2.6,0.9,3.9,1.3c0.2,0.1,0.3,0.1,0.5,0.2c0.5,0.2,1.1,0.4,1.7,0.5c0.7,0.2,1.5,0.5,2.2,0.7
		c0.2,0.1,0.4,0.1,0.7,0.2c0.1,0,0.2,0.1,0.3,0.1c0,0,0,0,0.1,0c0.1,0,0.1,0,0.2,0.1c0.1,0,0.3,0.1,0.4,0.1c0.3,0.1,0.6,0.2,0.9,0.3
		c1.2,0.4,2.5,0.8,3.7,1.1c0.2,0.1,0.4,0.1,0.7,0.2c1.1,0.3,2.2,0.6,3.3,0.9c1.8,0.5,3.6,1,5.4,1.5c0.9,0.2,1.8,0.5,2.7,0.7
		c0.2,0.1,0.4,0.1,0.6,0.1c0.7,0.2,1.5,0.4,2.2,0.5c0.8,0.2,1.7,0.4,2.6,0.6c0.6,0.1,1.3,0.3,1.9,0.4c1.3,0.3,2.5,0.6,3.8,0.9
		c0.1,0,0.2,0.1,0.4,0.1c1.8,0.4,3.7,0.8,5.5,1.1c0.5,0.1,1.1,0.2,1.6,0.3c1.8,0.3,3.5,0.7,5.3,1c0.3,0.1,0.7,0.1,1.1,0.2
		c1.6,0.3,3.2,0.5,4.8,0.8c0.1,0,0.3,0,0.4,0.1c1.5,0.2,3,0.4,4.5,0.7c0.3,0,0.5,0.1,0.8,0.1c0.5,0.1,1,0.1,1.5,0.2
		c0.3,0,0.6,0.1,0.9,0.1c0.8,0.1,1.6,0.2,2.3,0.3c0.3,0,0.6,0.1,1,0.1c0.9,0.1,1.8,0.2,2.8,0.3c0.7,0.1,1.3,0.2,2,0.2
		c0.7,0.1,1.4,0.1,2,0.2c0.1,0,0.1,0,0.2,0c0.1,0,0.1,0,0.2,0c0.1,0,0.3,0,0.4,0c9.7,0.5,18-7.2,18-17.1V586.6
		C498.2,571.4,479.8,563.8,469,574.6z M437.4,525.8H205.5c-9.8,0-17.5,8.3-17.1,18c0,0.1,0,0.3,0,0.4c0,0.1,0,0.1,0,0.2
		c0,0.1,0,0.1,0,0.2c0.1,0.7,0.1,1.4,0.2,2c0.1,0.7,0.1,1.3,0.2,2c0.1,0.9,0.2,1.8,0.3,2.8c0,0.3,0.1,0.6,0.1,1
		c0.1,0.8,0.2,1.6,0.3,2.3c0.1,0.5,0.1,1,0.2,1.5c0,0.4,0.1,0.7,0.1,1.1c0,0.4,0.1,0.7,0.2,1.1c0,0.2,0,0.4,0.1,0.6
		c0.1,1.1,0.3,2.1,0.5,3.2c0.1,0.5,0.1,0.9,0.2,1.4c0.1,0.5,0.1,0.9,0.2,1.4c0.2,1.5,0.5,2.9,0.7,4.4c0.2,1.2,0.4,2.4,0.7,3.6
		c0,0.2,0.1,0.4,0.1,0.6c0.1,0.8,0.3,1.5,0.4,2.3c0.3,1.4,0.6,2.8,0.9,4.2c0,0,0,0,0,0.1c0.1,0.6,0.3,1.3,0.4,1.9
		c0.2,1.1,0.5,2.2,0.7,3.3c0.1,0.6,0.3,1.2,0.4,1.8c0.5,2,1,4,1.5,6c0.4,1.5,0.8,3,1.2,4.4c0.2,0.8,0.4,1.6,0.7,2.4
		c0.3,1.3,0.7,2.6,1.1,3.9c0.2,0.7,0.4,1.3,0.6,2c0.3,1,0.6,2.1,0.9,3.1c0.2,0.8,0.5,1.6,0.7,2.3c0.4,1.3,0.8,2.6,1.3,3.9
		c0.6,1.9,1.3,3.8,1.9,5.6c0.7,1.9,1.3,3.7,2,5.6c0.6,1.7,1.3,3.3,1.9,5c0.1,0.2,0.1,0.3,0.2,0.5c1.5,3.7,3,7.3,4.6,10.9
		c0.7,1.6,1.4,3.2,2.2,4.8c0.1,0.2,0.2,0.4,0.3,0.6c0.8,1.8,1.7,3.6,2.5,5.3c0.8,1.8,1.7,3.5,2.6,5.3c0.9,1.7,1.8,3.5,2.7,5.2
		c0.9,1.7,1.8,3.5,2.8,5.2c0.6,1.2,1.3,2.3,2,3.5c0.4,0.7,0.8,1.5,1.3,2.2c0.7,1.3,1.5,2.6,2.3,3.8c0.4,0.6,0.7,1.2,1.1,1.8
		c0.4,0.7,0.9,1.5,1.4,2.2c0.4,0.6,0.8,1.3,1.2,1.9c1,1.5,1.9,3,2.9,4.5c0.9,1.4,1.9,2.9,2.8,4.3c0.7,1,1.3,1.9,2,2.9
		c0.6,0.8,1.2,1.7,1.7,2.5c0.1,0.1,0.2,0.2,0.2,0.4c1,1.5,2.1,2.9,3.2,4.4c0.6,0.8,1.1,1.6,1.7,2.3c0.6,0.8,1.2,1.6,1.7,2.3
		c2.4,3.1,4.8,6.1,7.2,9.2c0.1,0.1,0.2,0.2,0.3,0.3c6.5,7.6,18,8.1,25.1,1L449.5,555C460.2,544.2,452.6,525.8,437.4,525.8z
		 M449.5,469L285.5,305.1c-7.1-7.1-18.6-6.5-25.1,1c-0.1,0.1-0.2,0.2-0.3,0.3c-2.5,3-4.9,6-7.2,9.2c-1.2,1.5-2.3,3.1-3.5,4.7
		c-1.1,1.4-2.1,2.9-3.2,4.4c-0.1,0.1-0.2,0.2-0.2,0.4c-0.6,0.8-1.2,1.7-1.7,2.5c-0.7,0.9-1.3,1.9-2,2.9c-0.9,1.4-1.9,2.8-2.8,4.3
		c-1,1.5-1.9,3-2.9,4.5c-0.4,0.6-0.8,1.3-1.2,1.9c-0.4,0.7-0.9,1.5-1.4,2.2c-0.4,0.6-0.7,1.2-1.1,1.8c-0.8,1.3-1.5,2.6-2.3,3.8
		c-0.4,0.7-0.9,1.5-1.3,2.2c-0.7,1.2-1.3,2.3-2,3.5c-0.9,1.7-1.9,3.4-2.8,5.2c-0.9,1.7-1.8,3.5-2.7,5.2c-0.9,1.7-1.8,3.5-2.6,5.3
		c-0.9,1.8-1.7,3.5-2.5,5.3c-0.1,0.2-0.2,0.4-0.3,0.6c-0.7,1.6-1.4,3.2-2.2,4.8c-1.6,3.6-3.1,7.2-4.6,10.9c-0.1,0.2-0.1,0.4-0.2,0.5
		c-0.6,1.7-1.3,3.3-1.9,5c-0.7,1.9-1.4,3.7-2,5.6c-0.7,1.9-1.3,3.7-1.9,5.6c-0.4,1.3-0.9,2.6-1.3,3.9c-0.2,0.8-0.5,1.6-0.7,2.3
		c-0.3,1-0.6,2.1-0.9,3.1c-0.2,0.7-0.4,1.3-0.6,2c-0.4,1.3-0.8,2.6-1.1,3.9c-0.2,0.8-0.4,1.6-0.7,2.4c-0.4,1.5-0.8,3-1.2,4.4
		c-0.5,2-1,4-1.5,6c-0.1,0.6-0.3,1.2-0.4,1.8c-0.3,1.1-0.5,2.2-0.7,3.3c-0.1,0.6-0.3,1.2-0.4,1.9c0,0,0,0.1,0,0.1
		c-0.3,1.4-0.6,2.8-0.9,4.2c-0.2,0.7-0.3,1.5-0.4,2.3c0,0.2-0.1,0.4-0.1,0.6c-0.2,1.2-0.4,2.4-0.7,3.6c-0.3,1.5-0.5,2.9-0.7,4.4
		c-0.1,0.5-0.2,0.9-0.2,1.4c-0.1,0.5-0.2,1-0.2,1.4c-0.2,1.1-0.3,2.1-0.5,3.2c0,0.2-0.1,0.4-0.1,0.6c-0.1,0.4-0.1,0.7-0.2,1.1
		c0,0.4-0.1,0.7-0.1,1.1c-0.1,0.5-0.1,1-0.2,1.5c-0.1,0.8-0.2,1.6-0.3,2.3c0,0.3-0.1,0.6-0.1,1c-0.1,0.9-0.2,1.8-0.3,2.8
		c-0.1,0.7-0.2,1.3-0.2,2c-0.1,0.7-0.1,1.4-0.2,2c0,0.1,0,0.1,0,0.2c0,0.1,0,0.1,0,0.2c0,0.1,0,0.3,0,0.4c-0.5,9.7,7.2,18,17.1,18
		h231.8C452.6,498.2,460.2,479.8,449.5,469z M469,574.6L305.1,738.5c-7.2,7.2-6.5,19,1.4,25.4c0.7,0.6,1.5,1.2,2.3,1.8
		c0.7,0.6,1.5,1.2,2.3,1.8c0.8,0.6,1.5,1.2,2.3,1.8c0.8,0.6,1.5,1.2,2.3,1.8c1.3,1,2.6,2,3.9,2.9c0.7,0.5,1.4,1,2.1,1.5
		c1.5,1.1,2.9,2.1,4.4,3.2c0.4,0.3,0.8,0.6,1.2,0.8c0.4,0.3,0.9,0.6,1.3,0.9c0.1,0.1,0.2,0.2,0.4,0.2c0.5,0.3,1,0.7,1.5,1
		c1,0.7,1.9,1.3,2.9,1.9c1,0.6,1.9,1.3,2.9,1.9c1,0.6,2,1.3,3,1.9c1,0.6,2,1.2,3,1.8c0.9,0.6,1.8,1.1,2.7,1.7
		c1.1,0.7,2.2,1.3,3.3,1.9c0.7,0.4,1.5,0.9,2.3,1.3c1.3,0.7,2.5,1.4,3.8,2.1c0.8,0.4,1.5,0.9,2.3,1.3c2.3,1.3,4.6,2.5,7,3.7
		c1,0.5,2.1,1.1,3.1,1.6c2.4,1.2,4.9,2.4,7.4,3.6c0.7,0.3,1.4,0.7,2.2,1c1.1,0.5,2.1,1,3.2,1.5c0.1,0.1,0.3,0.1,0.5,0.2
		c0.9,0.4,1.8,0.8,2.8,1.2c1.6,0.7,3.3,1.4,5,2.1c0,0,0.1,0,0.1,0c1.2,0.5,2.4,1,3.6,1.5c0.2,0.1,0.4,0.2,0.6,0.2
		c1.3,0.5,2.6,1,3.9,1.5c0.5,0.2,1,0.4,1.5,0.6c1.5,0.6,3,1.1,4.5,1.7c0.2,0.1,0.4,0.2,0.6,0.2c0.5,0.2,1.1,0.4,1.7,0.6
		c0.2,0.1,0.4,0.1,0.6,0.2c1.3,0.4,2.6,0.9,3.9,1.3c0.2,0.1,0.3,0.1,0.5,0.2c0.5,0.2,1.1,0.4,1.7,0.5c0.7,0.2,1.5,0.5,2.2,0.7
		c0.2,0.1,0.4,0.1,0.7,0.2c0.1,0,0.2,0.1,0.3,0.1c0,0,0,0,0.1,0c0.1,0,0.1,0,0.2,0.1c0.1,0,0.3,0.1,0.4,0.1c0.3,0.1,0.6,0.2,0.9,0.3
		c1.2,0.4,2.5,0.8,3.7,1.1c0.2,0.1,0.4,0.1,0.7,0.2c1.1,0.3,2.2,0.6,3.3,0.9c1.8,0.5,3.6,1,5.4,1.5c0.9,0.2,1.8,0.5,2.7,0.7
		c0.2,0.1,0.4,0.1,0.6,0.1c0.7,0.2,1.5,0.4,2.2,0.5c0.8,0.2,1.7,0.4,2.6,0.6c0.6,0.1,1.3,0.3,1.9,0.4c1.3,0.3,2.5,0.6,3.8,0.9
		c0.1,0,0.2,0.1,0.4,0.1c1.8,0.4,3.7,0.8,5.5,1.1c0.5,0.1,1.1,0.2,1.6,0.3c1.8,0.3,3.5,0.7,5.3,1c0.3,0.1,0.7,0.1,1.1,0.2
		c1.6,0.3,3.2,0.5,4.8,0.8c0.1,0,0.3,0,0.4,0.1c1.5,0.2,3,0.4,4.5,0.7c0.3,0,0.5,0.1,0.8,0.1c0.5,0.1,1,0.1,1.5,0.2
		c0.3,0,0.6,0.1,0.9,0.1c0.8,0.1,1.6,0.2,2.3,0.3c0.3,0,0.6,0.1,1,0.1c0.9,0.1,1.8,0.2,2.8,0.3c0.7,0.1,1.3,0.2,2,0.2
		c0.7,0.1,1.4,0.1,2,0.2c0.1,0,0.1,0,0.2,0c0.1,0,0.1,0,0.2,0c0.1,0,0.3,0,0.4,0c9.7,0.5,18-7.2,18-17.1V586.6
		C498.2,571.4,479.8,563.8,469,574.6z M437.4,525.8H205.5c-9.8,0-17.5,8.3-17.1,18c0,0.1,0,0.3,0,0.4c0,0.1,0,0.1,0,0.2
		c0,0.1,0,0.1,0,0.2c0.1,0.7,0.1,1.4,0.2,2c0.1,0.7,0.1,1.3,0.2,2c0.1,0.9,0.2,1.8,0.3,2.8c0,0.3,0.1,0.6,0.1,1
		c0.1,0.8,0.2,1.6,0.3,2.3c0.1,0.5,0.1,1,0.2,1.5c0,0.4,0.1,0.7,0.1,1.1c0,0.4,0.1,0.7,0.2,1.1c0,0.2,0,0.4,0.1,0.6
		c0.1,1.1,0.3,2.1,0.5,3.2c0.1,0.5,0.1,0.9,0.2,1.4c0.1,0.5,0.1,0.9,0.2,1.4c0.2,1.5,0.5,2.9,0.7,4.4c0.2,1.2,0.4,2.4,0.7,3.6
		c0,0.2,0.1,0.4,0.1,0.6c0.1,0.8,0.3,1.5,0.4,2.3c0.3,1.4,0.6,2.8,0.9,4.2c0,0,0,0,0,0.1c0.1,0.6,0.3,1.3,0.4,1.9
		c0.2,1.1,0.5,2.2,0.7,3.3c0.1,0.6,0.3,1.2,0.4,1.8c0.5,2,1,4,1.5,6c0.4,1.5,0.8,3,1.2,4.4c0.2,0.8,0.4,1.6,0.7,2.4
		c0.3,1.3,0.7,2.6,1.1,3.9c0.2,0.7,0.4,1.3,0.6,2c0.3,1,0.6,2.1,0.9,3.1c0.2,0.8,0.5,1.6,0.7,2.3c0.4,1.3,0.8,2.6,1.3,3.9
		c0.6,1.9,1.3,3.8,1.9,5.6c0.7,1.9,1.3,3.7,2,5.6c0.6,1.7,1.3,3.3,1.9,5c0.1,0.2,0.1,0.3,0.2,0.5c1.5,3.7,3,7.3,4.6,10.9
		c0.7,1.6,1.4,3.2,2.2,4.8c0.1,0.2,0.2,0.4,0.3,0.6c0.8,1.8,1.7,3.6,2.5,5.3c0.8,1.8,1.7,3.5,2.6,5.3c0.9,1.7,1.8,3.5,2.7,5.2
		c0.9,1.7,1.8,3.5,2.8,5.2c0.6,1.2,1.3,2.3,2,3.5c0.4,0.7,0.8,1.5,1.3,2.2c0.7,1.3,1.5,2.6,2.3,3.8c0.4,0.6,0.7,1.2,1.1,1.8
		c0.4,0.7,0.9,1.5,1.4,2.2c0.4,0.6,0.8,1.3,1.2,1.9c1,1.5,1.9,3,2.9,4.5c0.9,1.4,1.9,2.9,2.8,4.3c0.7,1,1.3,1.9,2,2.9
		c0.6,0.8,1.2,1.7,1.7,2.5c0.1,0.1,0.2,0.2,0.2,0.4c1,1.5,2.1,2.9,3.2,4.4c0.6,0.8,1.1,1.6,1.7,2.3c0.6,0.8,1.2,1.6,1.7,2.3
		c2.4,3.1,4.8,6.1,7.2,9.2c0.1,0.1,0.2,0.2,0.3,0.3c6.5,7.6,18,8.1,25.1,1L449.5,555C460.2,544.2,452.6,525.8,437.4,525.8z
		 M449.5,469L285.5,305.1c-7.1-7.1-18.6-6.5-25.1,1c-0.1,0.1-0.2,0.2-0.3,0.3c-2.5,3-4.9,6-7.2,9.2c-1.2,1.5-2.3,3.1-3.5,4.7
		c-1.1,1.4-2.1,2.9-3.2,4.4c-0.1,0.1-0.2,0.2-0.2,0.4c-0.6,0.8-1.2,1.7-1.7,2.5c-0.7,0.9-1.3,1.9-2,2.9c-0.9,1.4-1.9,2.8-2.8,4.3
		c-1,1.5-1.9,3-2.9,4.5c-0.4,0.6-0.8,1.3-1.2,1.9c-0.4,0.7-0.9,1.5-1.4,2.2c-0.4,0.6-0.7,1.2-1.1,1.8c-0.8,1.3-1.5,2.6-2.3,3.8
		c-0.4,0.7-0.9,1.5-1.3,2.2c-0.7,1.2-1.3,2.3-2,3.5c-0.9,1.7-1.9,3.4-2.8,5.2c-0.9,1.7-1.8,3.5-2.7,5.2c-0.9,1.7-1.8,3.5-2.6,5.3
		c-0.9,1.8-1.7,3.5-2.5,5.3c-0.1,0.2-0.2,0.4-0.3,0.6c-0.7,1.6-1.4,3.2-2.2,4.8c-1.6,3.6-3.1,7.2-4.6,10.9c-0.1,0.2-0.1,0.4-0.2,0.5
		c-0.6,1.7-1.3,3.3-1.9,5c-0.7,1.9-1.4,3.7-2,5.6c-0.7,1.9-1.3,3.7-1.9,5.6c-0.4,1.3-0.9,2.6-1.3,3.9c-0.2,0.8-0.5,1.6-0.7,2.3
		c-0.3,1-0.6,2.1-0.9,3.1c-0.2,0.7-0.4,1.3-0.6,2c-0.4,1.3-0.8,2.6-1.1,3.9c-0.2,0.8-0.4,1.6-0.7,2.4c-0.4,1.5-0.8,3-1.2,4.4
		c-0.5,2-1,4-1.5,6c-0.1,0.6-0.3,1.2-0.4,1.8c-0.3,1.1-0.5,2.2-0.7,3.3c-0.1,0.6-0.3,1.2-0.4,1.9c0,0,0,0.1,0,0.1
		c-0.3,1.4-0.6,2.8-0.9,4.2c-0.2,0.7-0.3,1.5-0.4,2.3c0,0.2-0.1,0.4-0.1,0.6c-0.2,1.2-0.4,2.4-0.7,3.6c-0.3,1.5-0.5,2.9-0.7,4.4
		c-0.1,0.5-0.2,0.9-0.2,1.4c-0.1,0.5-0.2,1-0.2,1.4c-0.2,1.1-0.3,2.1-0.5,3.2c0,0.2-0.1,0.4-0.1,0.6c-0.1,0.4-0.1,0.7-0.2,1.1
		c0,0.4-0.1,0.7-0.1,1.1c-0.1,0.5-0.1,1-0.2,1.5c-0.1,0.8-0.2,1.6-0.3,2.3c0,0.3-0.1,0.6-0.1,1c-0.1,0.9-0.2,1.8-0.3,2.8
		c-0.1,0.7-0.2,1.3-0.2,2c-0.1,0.7-0.1,1.4-0.2,2c0,0.1,0,0.1,0,0.2c0,0.1,0,0.1,0,0.2c0,0.1,0,0.3,0,0.4c-0.5,9.7,7.2,18,17.1,18
		h231.8C452.6,498.2,460.2,479.8,449.5,469z M469,574.6L305.1,738.5c-7.2,7.2-6.5,19,1.4,25.4c0.7,0.6,1.5,1.2,2.3,1.8
		c0.7,0.6,1.5,1.2,2.3,1.8c0.8,0.6,1.5,1.2,2.3,1.8c0.8,0.6,1.5,1.2,2.3,1.8c1.3,1,2.6,2,3.9,2.9c0.7,0.5,1.4,1,2.1,1.5
		c1.5,1.1,2.9,2.1,4.4,3.2c0.4,0.3,0.8,0.6,1.2,0.8c0.4,0.3,0.9,0.6,1.3,0.9c0.1,0.1,0.2,0.2,0.4,0.2c0.5,0.3,1,0.7,1.5,1
		c1,0.7,1.9,1.3,2.9,1.9c1,0.6,1.9,1.3,2.9,1.9c1,0.6,2,1.3,3,1.9c1,0.6,2,1.2,3,1.8c0.9,0.6,1.8,1.1,2.7,1.7
		c1.1,0.7,2.2,1.3,3.3,1.9c0.7,0.4,1.5,0.9,2.3,1.3c1.3,0.7,2.5,1.4,3.8,2.1c0.8,0.4,1.5,0.9,2.3,1.3c2.3,1.3,4.6,2.5,7,3.7
		c1,0.5,2.1,1.1,3.1,1.6c2.4,1.2,4.9,2.4,7.4,3.6c0.7,0.3,1.4,0.7,2.2,1c1.1,0.5,2.1,1,3.2,1.5c0.1,0.1,0.3,0.1,0.5,0.2
		c0.9,0.4,1.8,0.8,2.8,1.2c1.6,0.7,3.3,1.4,5,2.1c0,0,0.1,0,0.1,0c1.2,0.5,2.4,1,3.6,1.5c0.2,0.1,0.4,0.2,0.6,0.2
		c1.3,0.5,2.6,1,3.9,1.5c0.5,0.2,1,0.4,1.5,0.6c1.5,0.6,3,1.1,4.5,1.7c0.2,0.1,0.4,0.2,0.6,0.2c0.5,0.2,1.1,0.4,1.7,0.6
		c0.2,0.1,0.4,0.1,0.6,0.2c1.3,0.4,2.6,0.9,3.9,1.3c0.2,0.1,0.3,0.1,0.5,0.2c0.5,0.2,1.1,0.4,1.7,0.5c0.7,0.2,1.5,0.5,2.2,0.7
		c0.2,0.1,0.4,0.1,0.7,0.2c0.1,0,0.2,0.1,0.3,0.1c0,0,0,0,0.1,0c0.1,0,0.1,0,0.2,0.1c0.1,0,0.3,0.1,0.4,0.1c0.3,0.1,0.6,0.2,0.9,0.3
		c1.2,0.4,2.5,0.8,3.7,1.1c0.2,0.1,0.4,0.1,0.7,0.2c1.1,0.3,2.2,0.6,3.3,0.9c1.8,0.5,3.6,1,5.4,1.5c0.9,0.2,1.8,0.5,2.7,0.7
		c0.2,0.1,0.4,0.1,0.6,0.1c0.7,0.2,1.5,0.4,2.2,0.5c0.8,0.2,1.7,0.4,2.6,0.6c0.6,0.1,1.3,0.3,1.9,0.4c1.3,0.3,2.5,0.6,3.8,0.9
		c0.1,0,0.2,0.1,0.4,0.1c1.8,0.4,3.7,0.8,5.5,1.1c0.5,0.1,1.1,0.2,1.6,0.3c1.8,0.3,3.5,0.7,5.3,1c0.3,0.1,0.7,0.1,1.1,0.2
		c1.6,0.3,3.2,0.5,4.8,0.8c0.1,0,0.3,0,0.4,0.1c1.5,0.2,3,0.4,4.5,0.7c0.3,0,0.5,0.1,0.8,0.1c0.5,0.1,1,0.1,1.5,0.2
		c0.3,0,0.6,0.1,0.9,0.1c0.8,0.1,1.6,0.2,2.3,0.3c0.3,0,0.6,0.1,1,0.1c0.9,0.1,1.8,0.2,2.8,0.3c0.7,0.1,1.3,0.2,2,0.2
		c0.7,0.1,1.4,0.1,2,0.2c0.1,0,0.1,0,0.2,0c0.1,0,0.1,0,0.2,0c0.1,0,0.3,0,0.4,0c9.7,0.5,18-7.2,18-17.1V586.6
		C498.2,571.4,479.8,563.8,469,574.6z M437.4,525.8H205.5c-9.8,0-17.5,8.3-17.1,18c0,0.1,0,0.3,0,0.4c0,0.1,0,0.1,0,0.2
		c0,0.1,0,0.1,0,0.2c0.1,0.7,0.1,1.4,0.2,2c0.1,0.7,0.1,1.3,0.2,2c0.1,0.9,0.2,1.8,0.3,2.8c0,0.3,0.1,0.6,0.1,1
		c0.1,0.8,0.2,1.6,0.3,2.3c0.1,0.5,0.1,1,0.2,1.5c0,0.4,0.1,0.7,0.1,1.1c0,0.4,0.1,0.7,0.2,1.1c0,0.2,0,0.4,0.1,0.6
		c0.1,1.1,0.3,2.1,0.5,3.2c0.1,0.5,0.1,0.9,0.2,1.4c0.1,0.5,0.1,0.9,0.2,1.4c0.2,1.5,0.5,2.9,0.7,4.4c0.2,1.2,0.4,2.4,0.7,3.6
		c0,0.2,0.1,0.4,0.1,0.6c0.1,0.8,0.3,1.5,0.4,2.3c0.3,1.4,0.6,2.8,0.9,4.2c0,0,0,0,0,0.1c0.1,0.6,0.3,1.3,0.4,1.9
		c0.2,1.1,0.5,2.2,0.7,3.3c0.1,0.6,0.3,1.2,0.4,1.8c0.5,2,1,4,1.5,6c0.4,1.5,0.8,3,1.2,4.4c0.2,0.8,0.4,1.6,0.7,2.4
		c0.3,1.3,0.7,2.6,1.1,3.9c0.2,0.7,0.4,1.3,0.6,2c0.3,1,0.6,2.1,0.9,3.1c0.2,0.8,0.5,1.6,0.7,2.3c0.4,1.3,0.8,2.6,1.3,3.9
		c0.6,1.9,1.3,3.8,1.9,5.6c0.7,1.9,1.3,3.7,2,5.6c0.6,1.7,1.3,3.3,1.9,5c0.1,0.2,0.1,0.3,0.2,0.5c1.5,3.7,3,7.3,4.6,10.9
		c0.7,1.6,1.4,3.2,2.2,4.8c0.1,0.2,0.2,0.4,0.3,0.6c0.8,1.8,1.7,3.6,2.5,5.3c0.8,1.8,1.7,3.5,2.6,5.3c0.9,1.7,1.8,3.5,2.7,5.2
		c0.9,1.7,1.8,3.5,2.8,5.2c0.6,1.2,1.3,2.3,2,3.5c0.4,0.7,0.8,1.5,1.3,2.2c0.7,1.3,1.5,2.6,2.3,3.8c0.4,0.6,0.7,1.2,1.1,1.8
		c0.4,0.7,0.9,1.5,1.4,2.2c0.4,0.6,0.8,1.3,1.2,1.9c1,1.5,1.9,3,2.9,4.5c0.9,1.4,1.9,2.9,2.8,4.3c0.7,1,1.3,1.9,2,2.9
		c0.6,0.8,1.2,1.7,1.7,2.5c0.1,0.1,0.2,0.2,0.2,0.4c1,1.5,2.1,2.9,3.2,4.4c0.6,0.8,1.1,1.6,1.7,2.3c0.6,0.8,1.2,1.6,1.7,2.3
		c2.4,3.1,4.8,6.1,7.2,9.2c0.1,0.1,0.2,0.2,0.3,0.3c6.5,7.6,18,8.1,25.1,1L449.5,555C460.2,544.2,452.6,525.8,437.4,525.8z
		 M449.5,469L285.5,305.1c-7.1-7.1-18.6-6.5-25.1,1c-0.1,0.1-0.2,0.2-0.3,0.3c-2.5,3-4.9,6-7.2,9.2c-1.2,1.5-2.3,3.1-3.5,4.7
		c-1.1,1.4-2.1,2.9-3.2,4.4c-0.1,0.1-0.2,0.2-0.2,0.4c-0.6,0.8-1.2,1.7-1.7,2.5c-0.7,0.9-1.3,1.9-2,2.9c-0.9,1.4-1.9,2.8-2.8,4.3
		c-1,1.5-1.9,3-2.9,4.5c-0.4,0.6-0.8,1.3-1.2,1.9c-0.4,0.7-0.9,1.5-1.4,2.2c-0.4,0.6-0.7,1.2-1.1,1.8c-0.8,1.3-1.5,2.6-2.3,3.8
		c-0.4,0.7-0.9,1.5-1.3,2.2c-0.7,1.2-1.3,2.3-2,3.5c-0.9,1.7-1.9,3.4-2.8,5.2c-0.9,1.7-1.8,3.5-2.7,5.2c-0.9,1.7-1.8,3.5-2.6,5.3
		c-0.9,1.8-1.7,3.5-2.5,5.3c-0.1,0.2-0.2,0.4-0.3,0.6c-0.7,1.6-1.4,3.2-2.2,4.8c-1.6,3.6-3.1,7.2-4.6,10.9c-0.1,0.2-0.1,0.4-0.2,0.5
		c-0.6,1.7-1.3,3.3-1.9,5c-0.7,1.9-1.4,3.7-2,5.6c-0.7,1.9-1.3,3.7-1.9,5.6c-0.4,1.3-0.9,2.6-1.3,3.9c-0.2,0.8-0.5,1.6-0.7,2.3
		c-0.3,1-0.6,2.1-0.9,3.1c-0.2,0.7-0.4,1.3-0.6,2c-0.4,1.3-0.8,2.6-1.1,3.9c-0.2,0.8-0.4,1.6-0.7,2.4c-0.4,1.5-0.8,3-1.2,4.4
		c-0.5,2-1,4-1.5,6c-0.1,0.6-0.3,1.2-0.4,1.8c-0.3,1.1-0.5,2.2-0.7,3.3c-0.1,0.6-0.3,1.2-0.4,1.9c0,0,0,0.1,0,0.1
		c-0.3,1.4-0.6,2.8-0.9,4.2c-0.2,0.7-0.3,1.5-0.4,2.3c0,0.2-0.1,0.4-0.1,0.6c-0.2,1.2-0.4,2.4-0.7,3.6c-0.3,1.5-0.5,2.9-0.7,4.4
		c-0.1,0.5-0.2,0.9-0.2,1.4c-0.1,0.5-0.2,1-0.2,1.4c-0.2,1.1-0.3,2.1-0.5,3.2c0,0.2-0.1,0.4-0.1,0.6c-0.1,0.4-0.1,0.7-0.2,1.1
		c0,0.4-0.1,0.7-0.1,1.1c-0.1,0.5-0.1,1-0.2,1.5c-0.1,0.8-0.2,1.6-0.3,2.3c0,0.3-0.1,0.6-0.1,1c-0.1,0.9-0.2,1.8-0.3,2.8
		c-0.1,0.7-0.2,1.3-0.2,2c-0.1,0.7-0.1,1.4-0.2,2c0,0.1,0,0.1,0,0.2c0,0.1,0,0.1,0,0.2c0,0.1,0,0.3,0,0.4c-0.5,9.7,7.2,18,17.1,18
		h231.8C452.6,498.2,460.2,479.8,449.5,469z M480.2,188.5c-0.1,0-0.3,0-0.4,0c-0.1,0-0.1,0-0.2,0c-0.1,0-0.1,0-0.2,0
		c-0.7,0.1-1.4,0.1-2,0.2c-0.7,0.1-1.3,0.1-2,0.2c-0.9,0.1-1.8,0.2-2.8,0.3c-0.3,0-0.6,0.1-1,0.1c-0.8,0.1-1.6,0.2-2.3,0.3
		c-0.3,0-0.6,0.1-0.9,0.1c-0.5,0.1-1,0.1-1.5,0.2c-0.3,0-0.5,0.1-0.8,0.1c-1.5,0.2-3,0.4-4.5,0.7c-0.1,0-0.3,0-0.4,0.1
		c-1.6,0.2-3.2,0.5-4.8,0.8c-0.4,0-0.7,0.1-1.1,0.2c-1.8,0.3-3.6,0.6-5.3,1c-0.5,0.1-1.1,0.2-1.6,0.3c-1.8,0.4-3.7,0.7-5.5,1.1
		c-0.1,0-0.3,0-0.4,0.1c-1.3,0.3-2.5,0.6-3.8,0.9c-0.6,0.1-1.3,0.3-1.9,0.4c-0.9,0.2-1.7,0.4-2.6,0.6c-0.7,0.2-1.5,0.3-2.2,0.5
		c-0.2,0-0.4,0.1-0.6,0.1c-0.9,0.2-1.8,0.4-2.7,0.7c-1.8,0.5-3.6,1-5.4,1.5c-1.1,0.3-2.2,0.6-3.3,0.9c-0.2,0.1-0.4,0.1-0.7,0.2
		c-1,0.3-2,0.6-3,0.9c-0.1,0-0.3,0.1-0.5,0.1c-0.1,0-0.2,0.1-0.3,0.1c0,0,0,0-0.1,0c0,0-0.1,0-0.1,0c-0.1,0-0.2,0.1-0.4,0.1
		c-0.7,0.2-1.4,0.4-2,0.6c-0.7,0.2-1.5,0.4-2.2,0.7c-0.6,0.2-1.1,0.4-1.7,0.5c-0.2,0.1-0.4,0.1-0.5,0.2c-1.3,0.4-2.6,0.9-3.9,1.3
		c-0.2,0.1-0.4,0.1-0.6,0.2c-0.6,0.2-1.1,0.4-1.7,0.6c-0.2,0.1-0.4,0.1-0.6,0.2c-1.5,0.5-3,1.1-4.5,1.7c-0.5,0.2-1,0.4-1.5,0.6
		c-1.3,0.5-2.6,1-3.9,1.5c-0.2,0.1-0.4,0.2-0.6,0.2c-1.2,0.5-2.4,1-3.6,1.5c0,0-0.1,0-0.1,0c-1.7,0.7-3.3,1.4-5,2.1
		c-0.9,0.4-1.8,0.8-2.8,1.2c-0.1,0.1-0.3,0.1-0.5,0.2c-1.1,0.5-2.1,1-3.2,1.5c-0.7,0.3-1.4,0.7-2.2,1c-2.5,1.1-4.9,2.3-7.4,3.6
		c-1,0.5-2.1,1-3.1,1.6c-2.3,1.2-4.7,2.4-7,3.7c-0.8,0.4-1.5,0.8-2.3,1.3c-1.2,0.7-2.5,1.4-3.7,2.1c0,0-0.1,0-0.1,0.1
		c-0.7,0.4-1.5,0.9-2.3,1.3c-2,1.2-4,2.4-6,3.6c-1,0.6-2,1.2-3,1.8c-0.1,0-0.2,0.1-0.3,0.2c-0.1,0.1-0.2,0.1-0.3,0.2
		c-0.6,0.4-1.2,0.8-1.8,1.2c-0.2,0.1-0.3,0.2-0.5,0.3c-1.4,0.9-2.7,1.8-4.1,2.7c-1.2,0.8-2.3,1.6-3.5,2.3c-2.3,1.6-4.6,3.2-6.9,4.8
		c-0.9,0.7-1.9,1.4-2.8,2.1c-0.9,0.7-1.9,1.4-2.8,2.1c-0.1,0.1-0.2,0.2-0.4,0.3c-0.5,0.4-1.1,0.8-1.6,1.2c-0.2,0.2-0.5,0.4-0.7,0.6
		c-0.5,0.3-0.9,0.7-1.4,1.1c-0.5,0.4-1.1,0.8-1.6,1.3c-0.3,0.2-0.6,0.5-0.9,0.7l-3.1,2.5c-0.1,0.1-0.2,0.2-0.3,0.3
		c-7.6,6.5-8.1,18-1,25.1L469,449.4c10.8,10.8,29.2,3.1,29.2-12.1V205.5C498.2,195.7,489.9,188,480.2,188.5z M437.4,525.8H205.5
		c-9.8,0-17.5,8.3-17.1,18c0,0.1,0,0.3,0,0.4c0,0.1,0,0.1,0,0.2c0,0.1,0,0.1,0,0.2c0.1,0.7,0.1,1.4,0.2,2c0.1,0.7,0.1,1.3,0.2,2
		c0.1,0.9,0.2,1.8,0.3,2.8c0,0.3,0.1,0.6,0.1,1c0.1,0.8,0.2,1.6,0.3,2.3c0.1,0.5,0.1,1,0.2,1.5c0,0.4,0.1,0.7,0.1,1.1
		c0,0.4,0.1,0.7,0.2,1.1c0,0.2,0,0.4,0.1,0.6c0.1,1.1,0.3,2.1,0.5,3.2c0.1,0.5,0.1,0.9,0.2,1.4c0.1,0.5,0.1,0.9,0.2,1.4
		c0.2,1.5,0.5,2.9,0.7,4.4c0.2,1.2,0.4,2.4,0.7,3.6c0,0.2,0.1,0.4,0.1,0.6c0.1,0.8,0.3,1.5,0.4,2.3c0.3,1.4,0.6,2.8,0.9,4.2
		c0,0,0,0,0,0.1c0.1,0.6,0.3,1.3,0.4,1.9c0.2,1.1,0.5,2.2,0.7,3.3c0.1,0.6,0.3,1.2,0.4,1.8c0.5,2,1,4,1.5,6c0.4,1.5,0.8,3,1.2,4.4
		c0.2,0.8,0.4,1.6,0.7,2.4c0.3,1.3,0.7,2.6,1.1,3.9c0.2,0.7,0.4,1.3,0.6,2c0.3,1,0.6,2.1,0.9,3.1c0.2,0.8,0.5,1.6,0.7,2.3
		c0.4,1.3,0.8,2.6,1.3,3.9c0.6,1.9,1.3,3.8,1.9,5.6c0.7,1.9,1.3,3.7,2,5.6c0.6,1.7,1.3,3.3,1.9,5c0.1,0.2,0.1,0.3,0.2,0.5
		c1.5,3.7,3,7.3,4.6,10.9c0.7,1.6,1.4,3.2,2.2,4.8c0.1,0.2,0.2,0.4,0.3,0.6c0.8,1.8,1.7,3.6,2.5,5.3c0.8,1.8,1.7,3.5,2.6,5.3
		c0.9,1.7,1.8,3.5,2.7,5.2c0.9,1.7,1.8,3.5,2.8,5.2c0.6,1.2,1.3,2.3,2,3.5c0.4,0.7,0.8,1.5,1.3,2.2c0.7,1.3,1.5,2.6,2.3,3.8
		c0.4,0.6,0.7,1.2,1.1,1.8c0.4,0.7,0.9,1.5,1.4,2.2c0.4,0.6,0.8,1.3,1.2,1.9c1,1.5,1.9,3,2.9,4.5c0.9,1.4,1.9,2.9,2.8,4.3
		c0.7,1,1.3,1.9,2,2.9c0.6,0.8,1.2,1.7,1.7,2.5c0.1,0.1,0.2,0.2,0.2,0.4c1,1.5,2.1,2.9,3.2,4.4c0.6,0.8,1.1,1.6,1.7,2.3
		c0.6,0.8,1.2,1.6,1.7,2.3c2.4,3.1,4.8,6.1,7.2,9.2c0.1,0.1,0.2,0.2,0.3,0.3c6.5,7.6,18,8.1,25.1,1L449.5,555
		C460.2,544.2,452.6,525.8,437.4,525.8z M449.5,469L285.5,305.1c-7.1-7.1-18.6-6.5-25.1,1c-0.1,0.1-0.2,0.2-0.3,0.3
		c-2.5,3-4.9,6-7.2,9.2c-1.2,1.5-2.3,3.1-3.5,4.7c-1.1,1.4-2.1,2.9-3.2,4.4c-0.1,0.1-0.2,0.2-0.2,0.4c-0.6,0.8-1.2,1.7-1.7,2.5
		c-0.7,0.9-1.3,1.9-2,2.9c-0.9,1.4-1.9,2.8-2.8,4.3c-1,1.5-1.9,3-2.9,4.5c-0.4,0.6-0.8,1.3-1.2,1.9c-0.4,0.7-0.9,1.5-1.4,2.2
		c-0.4,0.6-0.7,1.2-1.1,1.8c-0.8,1.3-1.5,2.6-2.3,3.8c-0.4,0.7-0.9,1.5-1.3,2.2c-0.7,1.2-1.3,2.3-2,3.5c-0.9,1.7-1.9,3.4-2.8,5.2
		c-0.9,1.7-1.8,3.5-2.7,5.2c-0.9,1.7-1.8,3.5-2.6,5.3c-0.9,1.8-1.7,3.5-2.5,5.3c-0.1,0.2-0.2,0.4-0.3,0.6c-0.7,1.6-1.4,3.2-2.2,4.8
		c-1.6,3.6-3.1,7.2-4.6,10.9c-0.1,0.2-0.1,0.4-0.2,0.5c-0.6,1.7-1.3,3.3-1.9,5c-0.7,1.9-1.4,3.7-2,5.6c-0.7,1.9-1.3,3.7-1.9,5.6
		c-0.4,1.3-0.9,2.6-1.3,3.9c-0.2,0.8-0.5,1.6-0.7,2.3c-0.3,1-0.6,2.1-0.9,3.1c-0.2,0.7-0.4,1.3-0.6,2c-0.4,1.3-0.8,2.6-1.1,3.9
		c-0.2,0.8-0.4,1.6-0.7,2.4c-0.4,1.5-0.8,3-1.2,4.4c-0.5,2-1,4-1.5,6c-0.1,0.6-0.3,1.2-0.4,1.8c-0.3,1.1-0.5,2.2-0.7,3.3
		c-0.1,0.6-0.3,1.2-0.4,1.9c0,0,0,0.1,0,0.1c-0.3,1.4-0.6,2.8-0.9,4.2c-0.2,0.7-0.3,1.5-0.4,2.3c0,0.2-0.1,0.4-0.1,0.6
		c-0.2,1.2-0.4,2.4-0.7,3.6c-0.3,1.5-0.5,2.9-0.7,4.4c-0.1,0.5-0.2,0.9-0.2,1.4c-0.1,0.5-0.2,1-0.2,1.4c-0.2,1.1-0.3,2.1-0.5,3.2
		c0,0.2-0.1,0.4-0.1,0.6c-0.1,0.4-0.1,0.7-0.2,1.1c0,0.4-0.1,0.7-0.1,1.1c-0.1,0.5-0.1,1-0.2,1.5c-0.1,0.8-0.2,1.6-0.3,2.3
		c0,0.3-0.1,0.6-0.1,1c-0.1,0.9-0.2,1.8-0.3,2.8c-0.1,0.7-0.2,1.3-0.2,2c-0.1,0.7-0.1,1.4-0.2,2c0,0.1,0,0.1,0,0.2
		c0,0.1,0,0.1,0,0.2c0,0.1,0,0.3,0,0.4c-0.5,9.7,7.2,18,17.1,18h231.8C452.6,498.2,460.2,479.8,449.5,469z M480.2,188.5
		c-0.1,0-0.3,0-0.4,0c-0.1,0-0.1,0-0.2,0c-0.1,0-0.1,0-0.2,0c-0.7,0.1-1.4,0.1-2,0.2c-0.7,0.1-1.3,0.1-2,0.2
		c-0.9,0.1-1.8,0.2-2.8,0.3c-0.3,0-0.6,0.1-1,0.1c-0.8,0.1-1.6,0.2-2.3,0.3c-0.3,0-0.6,0.1-0.9,0.1c-0.5,0.1-1,0.1-1.5,0.2
		c-0.3,0-0.5,0.1-0.8,0.1c-1.5,0.2-3,0.4-4.5,0.7c-0.1,0-0.3,0-0.4,0.1c-1.6,0.2-3.2,0.5-4.8,0.8c-0.4,0-0.7,0.1-1.1,0.2
		c-1.8,0.3-3.6,0.6-5.3,1c-0.5,0.1-1.1,0.2-1.6,0.3c-1.8,0.4-3.7,0.7-5.5,1.1c-0.1,0-0.3,0-0.4,0.1c-1.3,0.3-2.5,0.6-3.8,0.9
		c-0.6,0.1-1.3,0.3-1.9,0.4c-0.9,0.2-1.7,0.4-2.6,0.6c-0.7,0.2-1.5,0.3-2.2,0.5c-0.2,0-0.4,0.1-0.6,0.1c-0.9,0.2-1.8,0.4-2.7,0.7
		c-1.8,0.5-3.6,1-5.4,1.5c-1.1,0.3-2.2,0.6-3.3,0.9c-0.2,0.1-0.4,0.1-0.7,0.2c-1,0.3-2,0.6-3,0.9c-0.1,0-0.3,0.1-0.5,0.1
		c-0.1,0-0.2,0.1-0.3,0.1c0,0,0,0-0.1,0c0,0-0.1,0-0.1,0c-0.1,0-0.2,0.1-0.4,0.1c-0.7,0.2-1.4,0.4-2,0.6c-0.7,0.2-1.5,0.4-2.2,0.7
		c-0.6,0.2-1.1,0.4-1.7,0.5c-0.2,0.1-0.4,0.1-0.5,0.2c-1.3,0.4-2.6,0.9-3.9,1.3c-0.2,0.1-0.4,0.1-0.6,0.2c-0.6,0.2-1.1,0.4-1.7,0.6
		c-0.2,0.1-0.4,0.1-0.6,0.2c-1.5,0.5-3,1.1-4.5,1.7c-0.5,0.2-1,0.4-1.5,0.6c-1.3,0.5-2.6,1-3.9,1.5c-0.2,0.1-0.4,0.2-0.6,0.2
		c-1.2,0.5-2.4,1-3.6,1.5c0,0-0.1,0-0.1,0c-1.7,0.7-3.3,1.4-5,2.1c-0.9,0.4-1.8,0.8-2.8,1.2c-0.1,0.1-0.3,0.1-0.5,0.2
		c-1.1,0.5-2.1,1-3.2,1.5c-0.7,0.3-1.4,0.7-2.2,1c-2.5,1.1-4.9,2.3-7.4,3.6c-1,0.5-2.1,1-3.1,1.6c-2.3,1.2-4.7,2.4-7,3.7
		c-0.8,0.4-1.5,0.8-2.3,1.3c-1.2,0.7-2.5,1.4-3.7,2.1c0,0-0.1,0-0.1,0.1c-0.7,0.4-1.5,0.9-2.3,1.3c-2,1.2-4,2.4-6,3.6
		c-1,0.6-2,1.2-3,1.8c-0.1,0-0.2,0.1-0.3,0.2c-0.1,0.1-0.2,0.1-0.3,0.2c-0.6,0.4-1.2,0.8-1.8,1.2c-0.2,0.1-0.3,0.2-0.5,0.3
		c-1.4,0.9-2.7,1.8-4.1,2.7c-1.2,0.8-2.3,1.6-3.5,2.3c-2.3,1.6-4.6,3.2-6.9,4.8c-0.9,0.7-1.9,1.4-2.8,2.1c-0.9,0.7-1.9,1.4-2.8,2.1
		c-0.1,0.1-0.2,0.2-0.4,0.3c-0.5,0.4-1.1,0.8-1.6,1.2c-0.2,0.2-0.5,0.4-0.7,0.6c-0.5,0.3-0.9,0.7-1.4,1.1c-0.5,0.4-1.1,0.8-1.6,1.3
		c-0.3,0.2-0.6,0.5-0.9,0.7l-3.1,2.5c-0.1,0.1-0.2,0.2-0.3,0.3c-7.6,6.5-8.1,18-1,25.1L469,449.4c10.8,10.8,29.2,3.1,29.2-12.1
		V205.5C498.2,195.7,489.9,188,480.2,188.5z M469,574.6L305.1,738.5c-7.2,7.2-6.5,19,1.4,25.4c0.7,0.6,1.5,1.2,2.3,1.8
		c0.7,0.6,1.5,1.2,2.3,1.8c0.8,0.6,1.5,1.2,2.3,1.8c0.8,0.6,1.5,1.2,2.3,1.8c1.3,1,2.6,2,3.9,2.9c0.7,0.5,1.4,1,2.1,1.5
		c1.5,1.1,2.9,2.1,4.4,3.2c0.4,0.3,0.8,0.6,1.2,0.8c0.4,0.3,0.9,0.6,1.3,0.9c0.1,0.1,0.2,0.2,0.4,0.2c0.5,0.3,1,0.7,1.5,1
		c1,0.7,1.9,1.3,2.9,1.9c1,0.6,1.9,1.3,2.9,1.9c1,0.6,2,1.3,3,1.9c1,0.6,2,1.2,3,1.8c0.9,0.6,1.8,1.1,2.7,1.7
		c1.1,0.7,2.2,1.3,3.3,1.9c0.7,0.4,1.5,0.9,2.3,1.3c1.3,0.7,2.5,1.4,3.8,2.1c0.8,0.4,1.5,0.9,2.3,1.3c2.3,1.3,4.6,2.5,7,3.7
		c1,0.5,2.1,1.1,3.1,1.6c2.4,1.2,4.9,2.4,7.4,3.6c0.7,0.3,1.4,0.7,2.2,1c1.1,0.5,2.1,1,3.2,1.5c0.1,0.1,0.3,0.1,0.5,0.2
		c0.9,0.4,1.8,0.8,2.8,1.2c1.6,0.7,3.3,1.4,5,2.1c0,0,0.1,0,0.1,0c1.2,0.5,2.4,1,3.6,1.5c0.2,0.1,0.4,0.2,0.6,0.2
		c1.3,0.5,2.6,1,3.9,1.5c0.5,0.2,1,0.4,1.5,0.6c1.5,0.6,3,1.1,4.5,1.7c0.2,0.1,0.4,0.2,0.6,0.2c0.5,0.2,1.1,0.4,1.7,0.6
		c0.2,0.1,0.4,0.1,0.6,0.2c1.3,0.4,2.6,0.9,3.9,1.3c0.2,0.1,0.3,0.1,0.5,0.2c0.5,0.2,1.1,0.4,1.7,0.5c0.7,0.2,1.5,0.5,2.2,0.7
		c0.2,0.1,0.4,0.1,0.7,0.2c0.1,0,0.2,0.1,0.3,0.1c0,0,0,0,0.1,0c0.1,0,0.1,0,0.2,0.1c0.1,0,0.3,0.1,0.4,0.1c0.3,0.1,0.6,0.2,0.9,0.3
		c1.2,0.4,2.5,0.8,3.7,1.1c0.2,0.1,0.4,0.1,0.7,0.2c1.1,0.3,2.2,0.6,3.3,0.9c1.8,0.5,3.6,1,5.4,1.5c0.9,0.2,1.8,0.5,2.7,0.7
		c0.2,0.1,0.4,0.1,0.6,0.1c0.7,0.2,1.5,0.4,2.2,0.5c0.8,0.2,1.7,0.4,2.6,0.6c0.6,0.1,1.3,0.3,1.9,0.4c1.3,0.3,2.5,0.6,3.8,0.9
		c0.1,0,0.2,0.1,0.4,0.1c1.8,0.4,3.7,0.8,5.5,1.1c0.5,0.1,1.1,0.2,1.6,0.3c1.8,0.3,3.5,0.7,5.3,1c0.3,0.1,0.7,0.1,1.1,0.2
		c1.6,0.3,3.2,0.5,4.8,0.8c0.1,0,0.3,0,0.4,0.1c1.5,0.2,3,0.4,4.5,0.7c0.3,0,0.5,0.1,0.8,0.1c0.5,0.1,1,0.1,1.5,0.2
		c0.3,0,0.6,0.1,0.9,0.1c0.8,0.1,1.6,0.2,2.3,0.3c0.3,0,0.6,0.1,1,0.1c0.9,0.1,1.8,0.2,2.8,0.3c0.7,0.1,1.3,0.2,2,0.2
		c0.7,0.1,1.4,0.1,2,0.2c0.1,0,0.1,0,0.2,0c0.1,0,0.1,0,0.2,0c0.1,0,0.3,0,0.4,0c9.7,0.5,18-7.2,18-17.1V586.6
		C498.2,571.4,479.8,563.8,469,574.6z M437.4,525.8H205.5c-9.8,0-17.5,8.3-17.1,18c0,0.1,0,0.3,0,0.4c0,0.1,0,0.1,0,0.2
		c0,0.1,0,0.1,0,0.2c0.1,0.7,0.1,1.4,0.2,2c0.1,0.7,0.1,1.3,0.2,2c0.1,0.9,0.2,1.8,0.3,2.8c0,0.3,0.1,0.6,0.1,1
		c0.1,0.8,0.2,1.6,0.3,2.3c0.1,0.5,0.1,1,0.2,1.5c0,0.4,0.1,0.7,0.1,1.1c0,0.4,0.1,0.7,0.2,1.1c0,0.2,0,0.4,0.1,0.6
		c0.1,1.1,0.3,2.1,0.5,3.2c0.1,0.5,0.1,0.9,0.2,1.4c0.1,0.5,0.1,0.9,0.2,1.4c0.2,1.5,0.5,2.9,0.7,4.4c0.2,1.2,0.4,2.4,0.7,3.6
		c0,0.2,0.1,0.4,0.1,0.6c0.1,0.8,0.3,1.5,0.4,2.3c0.3,1.4,0.6,2.8,0.9,4.2c0,0,0,0,0,0.1c0.1,0.6,0.3,1.3,0.4,1.9
		c0.2,1.1,0.5,2.2,0.7,3.3c0.1,0.6,0.3,1.2,0.4,1.8c0.5,2,1,4,1.5,6c0.4,1.5,0.8,3,1.2,4.4c0.2,0.8,0.4,1.6,0.7,2.4
		c0.3,1.3,0.7,2.6,1.1,3.9c0.2,0.7,0.4,1.3,0.6,2c0.3,1,0.6,2.1,0.9,3.1c0.2,0.8,0.5,1.6,0.7,2.3c0.4,1.3,0.8,2.6,1.3,3.9
		c0.6,1.9,1.3,3.8,1.9,5.6c0.7,1.9,1.3,3.7,2,5.6c0.6,1.7,1.3,3.3,1.9,5c0.1,0.2,0.1,0.3,0.2,0.5c1.5,3.7,3,7.3,4.6,10.9
		c0.7,1.6,1.4,3.2,2.2,4.8c0.1,0.2,0.2,0.4,0.3,0.6c0.8,1.8,1.7,3.6,2.5,5.3c0.8,1.8,1.7,3.5,2.6,5.3c0.9,1.7,1.8,3.5,2.7,5.2
		c0.9,1.7,1.8,3.5,2.8,5.2c0.6,1.2,1.3,2.3,2,3.5c0.4,0.7,0.8,1.5,1.3,2.2c0.7,1.3,1.5,2.6,2.3,3.8c0.4,0.6,0.7,1.2,1.1,1.8
		c0.4,0.7,0.9,1.5,1.4,2.2c0.4,0.6,0.8,1.3,1.2,1.9c1,1.5,1.9,3,2.9,4.5c0.9,1.4,1.9,2.9,2.8,4.3c0.7,1,1.3,1.9,2,2.9
		c0.6,0.8,1.2,1.7,1.7,2.5c0.1,0.1,0.2,0.2,0.2,0.4c1,1.5,2.1,2.9,3.2,4.4c0.6,0.8,1.1,1.6,1.7,2.3c0.6,0.8,1.2,1.6,1.7,2.3
		c2.4,3.1,4.8,6.1,7.2,9.2c0.1,0.1,0.2,0.2,0.3,0.3c6.5,7.6,18,8.1,25.1,1L449.5,555C460.2,544.2,452.6,525.8,437.4,525.8z
		 M449.5,469L285.5,305.1c-7.1-7.1-18.6-6.5-25.1,1c-0.1,0.1-0.2,0.2-0.3,0.3c-2.5,3-4.9,6-7.2,9.2c-1.2,1.5-2.3,3.1-3.5,4.7
		c-1.1,1.4-2.1,2.9-3.2,4.4c-0.1,0.1-0.2,0.2-0.2,0.4c-0.6,0.8-1.2,1.7-1.7,2.5c-0.7,0.9-1.3,1.9-2,2.9c-0.9,1.4-1.9,2.8-2.8,4.3
		c-1,1.5-1.9,3-2.9,4.5c-0.4,0.6-0.8,1.3-1.2,1.9c-0.4,0.7-0.9,1.5-1.4,2.2c-0.4,0.6-0.7,1.2-1.1,1.8c-0.8,1.3-1.5,2.6-2.3,3.8
		c-0.4,0.7-0.9,1.5-1.3,2.2c-0.7,1.2-1.3,2.3-2,3.5c-0.9,1.7-1.9,3.4-2.8,5.2c-0.9,1.7-1.8,3.5-2.7,5.2c-0.9,1.7-1.8,3.5-2.6,5.3
		c-0.9,1.8-1.7,3.5-2.5,5.3c-0.1,0.2-0.2,0.4-0.3,0.6c-0.7,1.6-1.4,3.2-2.2,4.8c-1.6,3.6-3.1,7.2-4.6,10.9c-0.1,0.2-0.1,0.4-0.2,0.5
		c-0.6,1.7-1.3,3.3-1.9,5c-0.7,1.9-1.4,3.7-2,5.6c-0.7,1.9-1.3,3.7-1.9,5.6c-0.4,1.3-0.9,2.6-1.3,3.9c-0.2,0.8-0.5,1.6-0.7,2.3
		c-0.3,1-0.6,2.1-0.9,3.1c-0.2,0.7-0.4,1.3-0.6,2c-0.4,1.3-0.8,2.6-1.1,3.9c-0.2,0.8-0.4,1.6-0.7,2.4c-0.4,1.5-0.8,3-1.2,4.4
		c-0.5,2-1,4-1.5,6c-0.1,0.6-0.3,1.2-0.4,1.8c-0.3,1.1-0.5,2.2-0.7,3.3c-0.1,0.6-0.3,1.2-0.4,1.9c0,0,0,0.1,0,0.1
		c-0.3,1.4-0.6,2.8-0.9,4.2c-0.2,0.7-0.3,1.5-0.4,2.3c0,0.2-0.1,0.4-0.1,0.6c-0.2,1.2-0.4,2.4-0.7,3.6c-0.3,1.5-0.5,2.9-0.7,4.4
		c-0.1,0.5-0.2,0.9-0.2,1.4c-0.1,0.5-0.2,1-0.2,1.4c-0.2,1.1-0.3,2.1-0.5,3.2c0,0.2-0.1,0.4-0.1,0.6c-0.1,0.4-0.1,0.7-0.2,1.1
		c0,0.4-0.1,0.7-0.1,1.1c-0.1,0.5-0.1,1-0.2,1.5c-0.1,0.8-0.2,1.6-0.3,2.3c0,0.3-0.1,0.6-0.1,1c-0.1,0.9-0.2,1.8-0.3,2.8
		c-0.1,0.7-0.2,1.3-0.2,2c-0.1,0.7-0.1,1.4-0.2,2c0,0.1,0,0.1,0,0.2c0,0.1,0,0.1,0,0.2c0,0.1,0,0.3,0,0.4c-0.5,9.7,7.2,18,17.1,18
		h231.8C452.6,498.2,460.2,479.8,449.5,469z M480.2,188.5c-0.1,0-0.3,0-0.4,0c-0.1,0-0.1,0-0.2,0c-0.1,0-0.1,0-0.2,0
		c-0.7,0.1-1.4,0.1-2,0.2c-0.7,0.1-1.3,0.1-2,0.2c-0.9,0.1-1.8,0.2-2.8,0.3c-0.3,0-0.6,0.1-1,0.1c-0.8,0.1-1.6,0.2-2.3,0.3
		c-0.3,0-0.6,0.1-0.9,0.1c-0.5,0.1-1,0.1-1.5,0.2c-0.3,0-0.5,0.1-0.8,0.1c-1.5,0.2-3,0.4-4.5,0.7c-0.1,0-0.3,0-0.4,0.1
		c-1.6,0.2-3.2,0.5-4.8,0.8c-0.4,0-0.7,0.1-1.1,0.2c-1.8,0.3-3.6,0.6-5.3,1c-0.5,0.1-1.1,0.2-1.6,0.3c-1.8,0.4-3.7,0.7-5.5,1.1
		c-0.1,0-0.3,0-0.4,0.1c-1.3,0.3-2.5,0.6-3.8,0.9c-0.6,0.1-1.3,0.3-1.9,0.4c-0.9,0.2-1.7,0.4-2.6,0.6c-0.7,0.2-1.5,0.3-2.2,0.5
		c-0.2,0-0.4,0.1-0.6,0.1c-0.9,0.2-1.8,0.4-2.7,0.7c-1.8,0.5-3.6,1-5.4,1.5c-1.1,0.3-2.2,0.6-3.3,0.9c-0.2,0.1-0.4,0.1-0.7,0.2
		c-1,0.3-2,0.6-3,0.9c-0.1,0-0.3,0.1-0.5,0.1c-0.1,0-0.2,0.1-0.3,0.1c0,0,0,0-0.1,0c0,0-0.1,0-0.1,0c-0.1,0-0.2,0.1-0.4,0.1
		c-0.7,0.2-1.4,0.4-2,0.6c-0.7,0.2-1.5,0.4-2.2,0.7c-0.6,0.2-1.1,0.4-1.7,0.5c-0.2,0.1-0.4,0.1-0.5,0.2c-1.3,0.4-2.6,0.9-3.9,1.3
		c-0.2,0.1-0.4,0.1-0.6,0.2c-0.6,0.2-1.1,0.4-1.7,0.6c-0.2,0.1-0.4,0.1-0.6,0.2c-1.5,0.5-3,1.1-4.5,1.7c-0.5,0.2-1,0.4-1.5,0.6
		c-1.3,0.5-2.6,1-3.9,1.5c-0.2,0.1-0.4,0.2-0.6,0.2c-1.2,0.5-2.4,1-3.6,1.5c0,0-0.1,0-0.1,0c-1.7,0.7-3.3,1.4-5,2.1
		c-0.9,0.4-1.8,0.8-2.8,1.2c-0.1,0.1-0.3,0.1-0.5,0.2c-1.1,0.5-2.1,1-3.2,1.5c-0.7,0.3-1.4,0.7-2.2,1c-2.5,1.1-4.9,2.3-7.4,3.6
		c-1,0.5-2.1,1-3.1,1.6c-2.3,1.2-4.7,2.4-7,3.7c-0.8,0.4-1.5,0.8-2.3,1.3c-1.2,0.7-2.5,1.4-3.7,2.1c0,0-0.1,0-0.1,0.1
		c-0.7,0.4-1.5,0.9-2.3,1.3c-2,1.2-4,2.4-6,3.6c-1,0.6-2,1.2-3,1.8c-0.1,0-0.2,0.1-0.3,0.2c-0.1,0.1-0.2,0.1-0.3,0.2
		c-0.6,0.4-1.2,0.8-1.8,1.2c-0.2,0.1-0.3,0.2-0.5,0.3c-1.4,0.9-2.7,1.8-4.1,2.7c-1.2,0.8-2.3,1.6-3.5,2.3c-2.3,1.6-4.6,3.2-6.9,4.8
		c-0.9,0.7-1.9,1.4-2.8,2.1c-0.9,0.7-1.9,1.4-2.8,2.1c-0.1,0.1-0.2,0.2-0.4,0.3c-0.5,0.4-1.1,0.8-1.6,1.2c-0.2,0.2-0.5,0.4-0.7,0.6
		c-0.5,0.3-0.9,0.7-1.4,1.1c-0.5,0.4-1.1,0.8-1.6,1.3c-0.3,0.2-0.6,0.5-0.9,0.7l-3.1,2.5c-0.1,0.1-0.2,0.2-0.3,0.3
		c-7.6,6.5-8.1,18-1,25.1L469,449.4c10.8,10.8,29.2,3.1,29.2-12.1V205.5C498.2,195.7,489.9,188,480.2,188.5z M469,574.6L305.1,738.5
		c-7.2,7.2-6.5,19,1.4,25.4c0.7,0.6,1.5,1.2,2.3,1.8c0.7,0.6,1.5,1.2,2.3,1.8c0.8,0.6,1.5,1.2,2.3,1.8c0.8,0.6,1.5,1.2,2.3,1.8
		c1.3,1,2.6,2,3.9,2.9c0.7,0.5,1.4,1,2.1,1.5c1.5,1.1,2.9,2.1,4.4,3.2c0.4,0.3,0.8,0.6,1.2,0.8c0.4,0.3,0.9,0.6,1.3,0.9
		c0.1,0.1,0.2,0.2,0.4,0.2c0.5,0.3,1,0.7,1.5,1c1,0.7,1.9,1.3,2.9,1.9c1,0.6,1.9,1.3,2.9,1.9c1,0.6,2,1.3,3,1.9c1,0.6,2,1.2,3,1.8
		c0.9,0.6,1.8,1.1,2.7,1.7c1.1,0.7,2.2,1.3,3.3,1.9c0.7,0.4,1.5,0.9,2.3,1.3c1.3,0.7,2.5,1.4,3.8,2.1c0.8,0.4,1.5,0.9,2.3,1.3
		c2.3,1.3,4.6,2.5,7,3.7c1,0.5,2.1,1.1,3.1,1.6c2.4,1.2,4.9,2.4,7.4,3.6c0.7,0.3,1.4,0.7,2.2,1c1.1,0.5,2.1,1,3.2,1.5
		c0.1,0.1,0.3,0.1,0.5,0.2c0.9,0.4,1.8,0.8,2.8,1.2c1.6,0.7,3.3,1.4,5,2.1c0,0,0.1,0,0.1,0c1.2,0.5,2.4,1,3.6,1.5
		c0.2,0.1,0.4,0.2,0.6,0.2c1.3,0.5,2.6,1,3.9,1.5c0.5,0.2,1,0.4,1.5,0.6c1.5,0.6,3,1.1,4.5,1.7c0.2,0.1,0.4,0.2,0.6,0.2
		c0.5,0.2,1.1,0.4,1.7,0.6c0.2,0.1,0.4,0.1,0.6,0.2c1.3,0.4,2.6,0.9,3.9,1.3c0.2,0.1,0.3,0.1,0.5,0.2c0.5,0.2,1.1,0.4,1.7,0.5
		c0.7,0.2,1.5,0.5,2.2,0.7c0.2,0.1,0.4,0.1,0.7,0.2c0.1,0,0.2,0.1,0.3,0.1c0,0,0,0,0.1,0c0.1,0,0.1,0,0.2,0.1c0.1,0,0.3,0.1,0.4,0.1
		c0.3,0.1,0.6,0.2,0.9,0.3c1.2,0.4,2.5,0.8,3.7,1.1c0.2,0.1,0.4,0.1,0.7,0.2c1.1,0.3,2.2,0.6,3.3,0.9c1.8,0.5,3.6,1,5.4,1.5
		c0.9,0.2,1.8,0.5,2.7,0.7c0.2,0.1,0.4,0.1,0.6,0.1c0.7,0.2,1.5,0.4,2.2,0.5c0.8,0.2,1.7,0.4,2.6,0.6c0.6,0.1,1.3,0.3,1.9,0.4
		c1.3,0.3,2.5,0.6,3.8,0.9c0.1,0,0.2,0.1,0.4,0.1c1.8,0.4,3.7,0.8,5.5,1.1c0.5,0.1,1.1,0.2,1.6,0.3c1.8,0.3,3.5,0.7,5.3,1
		c0.3,0.1,0.7,0.1,1.1,0.2c1.6,0.3,3.2,0.5,4.8,0.8c0.1,0,0.3,0,0.4,0.1c1.5,0.2,3,0.4,4.5,0.7c0.3,0,0.5,0.1,0.8,0.1
		c0.5,0.1,1,0.1,1.5,0.2c0.3,0,0.6,0.1,0.9,0.1c0.8,0.1,1.6,0.2,2.3,0.3c0.3,0,0.6,0.1,1,0.1c0.9,0.1,1.8,0.2,2.8,0.3
		c0.7,0.1,1.3,0.2,2,0.2c0.7,0.1,1.4,0.1,2,0.2c0.1,0,0.1,0,0.2,0c0.1,0,0.1,0,0.2,0c0.1,0,0.3,0,0.4,0c9.7,0.5,18-7.2,18-17.1
		V586.6C498.2,571.4,479.8,563.8,469,574.6z M437.4,525.8H205.5c-9.8,0-17.5,8.3-17.1,18c0,0.1,0,0.3,0,0.4c0,0.1,0,0.1,0,0.2
		c0,0.1,0,0.1,0,0.2c0.1,0.7,0.1,1.4,0.2,2c0.1,0.7,0.1,1.3,0.2,2c0.1,0.9,0.2,1.8,0.3,2.8c0,0.3,0.1,0.6,0.1,1
		c0.1,0.8,0.2,1.6,0.3,2.3c0.1,0.5,0.1,1,0.2,1.5c0,0.4,0.1,0.7,0.1,1.1c0,0.4,0.1,0.7,0.2,1.1c0,0.2,0,0.4,0.1,0.6
		c0.1,1.1,0.3,2.1,0.5,3.2c0.1,0.5,0.1,0.9,0.2,1.4c0.1,0.5,0.1,0.9,0.2,1.4c0.2,1.5,0.5,2.9,0.7,4.4c0.2,1.2,0.4,2.4,0.7,3.6
		c0,0.2,0.1,0.4,0.1,0.6c0.1,0.8,0.3,1.5,0.4,2.3c0.3,1.4,0.6,2.8,0.9,4.2c0,0,0,0,0,0.1c0.1,0.6,0.3,1.3,0.4,1.9
		c0.2,1.1,0.5,2.2,0.7,3.3c0.1,0.6,0.3,1.2,0.4,1.8c0.5,2,1,4,1.5,6c0.4,1.5,0.8,3,1.2,4.4c0.2,0.8,0.4,1.6,0.7,2.4
		c0.3,1.3,0.7,2.6,1.1,3.9c0.2,0.7,0.4,1.3,0.6,2c0.3,1,0.6,2.1,0.9,3.1c0.2,0.8,0.5,1.6,0.7,2.3c0.4,1.3,0.8,2.6,1.3,3.9
		c0.6,1.9,1.3,3.8,1.9,5.6c0.7,1.9,1.3,3.7,2,5.6c0.6,1.7,1.3,3.3,1.9,5c0.1,0.2,0.1,0.3,0.2,0.5c1.5,3.7,3,7.3,4.6,10.9
		c0.7,1.6,1.4,3.2,2.2,4.8c0.1,0.2,0.2,0.4,0.3,0.6c0.8,1.8,1.7,3.6,2.5,5.3c0.8,1.8,1.7,3.5,2.6,5.3c0.9,1.7,1.8,3.5,2.7,5.2
		c0.9,1.7,1.8,3.5,2.8,5.2c0.6,1.2,1.3,2.3,2,3.5c0.4,0.7,0.8,1.5,1.3,2.2c0.7,1.3,1.5,2.6,2.3,3.8c0.4,0.6,0.7,1.2,1.1,1.8
		c0.4,0.7,0.9,1.5,1.4,2.2c0.4,0.6,0.8,1.3,1.2,1.9c1,1.5,1.9,3,2.9,4.5c0.9,1.4,1.9,2.9,2.8,4.3c0.7,1,1.3,1.9,2,2.9
		c0.6,0.8,1.2,1.7,1.7,2.5c0.1,0.1,0.2,0.2,0.2,0.4c1,1.5,2.1,2.9,3.2,4.4c0.6,0.8,1.1,1.6,1.7,2.3c0.6,0.8,1.2,1.6,1.7,2.3
		c2.4,3.1,4.8,6.1,7.2,9.2c0.1,0.1,0.2,0.2,0.3,0.3c6.5,7.6,18,8.1,25.1,1L449.5,555C460.2,544.2,452.6,525.8,437.4,525.8z
		 M449.5,469L285.5,305.1c-7.1-7.1-18.6-6.5-25.1,1c-0.1,0.1-0.2,0.2-0.3,0.3c-2.5,3-4.9,6-7.2,9.2c-1.2,1.5-2.3,3.1-3.5,4.7
		c-1.1,1.4-2.1,2.9-3.2,4.4c-0.1,0.1-0.2,0.2-0.2,0.4c-0.6,0.8-1.2,1.7-1.7,2.5c-0.7,0.9-1.3,1.9-2,2.9c-0.9,1.4-1.9,2.8-2.8,4.3
		c-1,1.5-1.9,3-2.9,4.5c-0.4,0.6-0.8,1.3-1.2,1.9c-0.4,0.7-0.9,1.5-1.4,2.2c-0.4,0.6-0.7,1.2-1.1,1.8c-0.8,1.3-1.5,2.6-2.3,3.8
		c-0.4,0.7-0.9,1.5-1.3,2.2c-0.7,1.2-1.3,2.3-2,3.5c-0.9,1.7-1.9,3.4-2.8,5.2c-0.9,1.7-1.8,3.5-2.7,5.2c-0.9,1.7-1.8,3.5-2.6,5.3
		c-0.9,1.8-1.7,3.5-2.5,5.3c-0.1,0.2-0.2,0.4-0.3,0.6c-0.7,1.6-1.4,3.2-2.2,4.8c-1.6,3.6-3.1,7.2-4.6,10.9c-0.1,0.2-0.1,0.4-0.2,0.5
		c-0.6,1.7-1.3,3.3-1.9,5c-0.7,1.9-1.4,3.7-2,5.6c-0.7,1.9-1.3,3.7-1.9,5.6c-0.4,1.3-0.9,2.6-1.3,3.9c-0.2,0.8-0.5,1.6-0.7,2.3
		c-0.3,1-0.6,2.1-0.9,3.1c-0.2,0.7-0.4,1.3-0.6,2c-0.4,1.3-0.8,2.6-1.1,3.9c-0.2,0.8-0.4,1.6-0.7,2.4c-0.4,1.5-0.8,3-1.2,4.4
		c-0.5,2-1,4-1.5,6c-0.1,0.6-0.3,1.2-0.4,1.8c-0.3,1.1-0.5,2.2-0.7,3.3c-0.1,0.6-0.3,1.2-0.4,1.9c0,0,0,0.1,0,0.1
		c-0.3,1.4-0.6,2.8-0.9,4.2c-0.2,0.7-0.3,1.5-0.4,2.3c0,0.2-0.1,0.4-0.1,0.6c-0.2,1.2-0.4,2.4-0.7,3.6c-0.3,1.5-0.5,2.9-0.7,4.4
		c-0.1,0.5-0.2,0.9-0.2,1.4c-0.1,0.5-0.2,1-0.2,1.4c-0.2,1.1-0.3,2.1-0.5,3.2c0,0.2-0.1,0.4-0.1,0.6c-0.1,0.4-0.1,0.7-0.2,1.1
		c0,0.4-0.1,0.7-0.1,1.1c-0.1,0.5-0.1,1-0.2,1.5c-0.1,0.8-0.2,1.6-0.3,2.3c0,0.3-0.1,0.6-0.1,1c-0.1,0.9-0.2,1.8-0.3,2.8
		c-0.1,0.7-0.2,1.3-0.2,2c-0.1,0.7-0.1,1.4-0.2,2c0,0.1,0,0.1,0,0.2c0,0.1,0,0.1,0,0.2c0,0.1,0,0.3,0,0.4c-0.5,9.7,7.2,18,17.1,18
		h231.8C452.6,498.2,460.2,479.8,449.5,469z M480.2,188.5c-0.1,0-0.3,0-0.4,0c-0.1,0-0.1,0-0.2,0c-0.1,0-0.1,0-0.2,0
		c-0.7,0.1-1.4,0.1-2,0.2c-0.7,0.1-1.3,0.1-2,0.2c-0.9,0.1-1.8,0.2-2.8,0.3c-0.3,0-0.6,0.1-1,0.1c-0.8,0.1-1.6,0.2-2.3,0.3
		c-0.3,0-0.6,0.1-0.9,0.1c-0.5,0.1-1,0.1-1.5,0.2c-0.3,0-0.5,0.1-0.8,0.1c-1.5,0.2-3,0.4-4.5,0.7c-0.1,0-0.3,0-0.4,0.1
		c-1.6,0.2-3.2,0.5-4.8,0.8c-0.4,0-0.7,0.1-1.1,0.2c-1.8,0.3-3.6,0.6-5.3,1c-0.5,0.1-1.1,0.2-1.6,0.3c-1.8,0.4-3.7,0.7-5.5,1.1
		c-0.1,0-0.3,0-0.4,0.1c-1.3,0.3-2.5,0.6-3.8,0.9c-0.6,0.1-1.3,0.3-1.9,0.4c-0.9,0.2-1.7,0.4-2.6,0.6c-0.7,0.2-1.5,0.3-2.2,0.5
		c-0.2,0-0.4,0.1-0.6,0.1c-0.9,0.2-1.8,0.4-2.7,0.7c-1.8,0.5-3.6,1-5.4,1.5c-1.1,0.3-2.2,0.6-3.3,0.9c-0.2,0.1-0.4,0.1-0.7,0.2
		c-1,0.3-2,0.6-3,0.9c-0.1,0-0.3,0.1-0.5,0.1c-0.1,0-0.2,0.1-0.3,0.1c0,0,0,0-0.1,0c0,0-0.1,0-0.1,0c-0.1,0-0.2,0.1-0.4,0.1
		c-0.7,0.2-1.4,0.4-2,0.6c-0.7,0.2-1.5,0.4-2.2,0.7c-0.6,0.2-1.1,0.4-1.7,0.5c-0.2,0.1-0.4,0.1-0.5,0.2c-1.3,0.4-2.6,0.9-3.9,1.3
		c-0.2,0.1-0.4,0.1-0.6,0.2c-0.6,0.2-1.1,0.4-1.7,0.6c-0.2,0.1-0.4,0.1-0.6,0.2c-1.5,0.5-3,1.1-4.5,1.7c-0.5,0.2-1,0.4-1.5,0.6
		c-1.3,0.5-2.6,1-3.9,1.5c-0.2,0.1-0.4,0.2-0.6,0.2c-1.2,0.5-2.4,1-3.6,1.5c0,0-0.1,0-0.1,0c-1.7,0.7-3.3,1.4-5,2.1
		c-0.9,0.4-1.8,0.8-2.8,1.2c-0.1,0.1-0.3,0.1-0.5,0.2c-1.1,0.5-2.1,1-3.2,1.5c-0.7,0.3-1.4,0.7-2.2,1c-2.5,1.1-4.9,2.3-7.4,3.6
		c-1,0.5-2.1,1-3.1,1.6c-2.3,1.2-4.7,2.4-7,3.7c-0.8,0.4-1.5,0.8-2.3,1.3c-1.2,0.7-2.5,1.4-3.7,2.1c0,0-0.1,0-0.1,0.1
		c-0.7,0.4-1.5,0.9-2.3,1.3c-2,1.2-4,2.4-6,3.6c-1,0.6-2,1.2-3,1.8c-0.1,0-0.2,0.1-0.3,0.2c-0.1,0.1-0.2,0.1-0.3,0.2
		c-0.6,0.4-1.2,0.8-1.8,1.2c-0.2,0.1-0.3,0.2-0.5,0.3c-1.4,0.9-2.7,1.8-4.1,2.7c-1.2,0.8-2.3,1.6-3.5,2.3c-2.3,1.6-4.6,3.2-6.9,4.8
		c-0.9,0.7-1.9,1.4-2.8,2.1c-0.9,0.7-1.9,1.4-2.8,2.1c-0.1,0.1-0.2,0.2-0.4,0.3c-0.5,0.4-1.1,0.8-1.6,1.2c-0.2,0.2-0.5,0.4-0.7,0.6
		c-0.5,0.3-0.9,0.7-1.4,1.1c-0.5,0.4-1.1,0.8-1.6,1.3c-0.3,0.2-0.6,0.5-0.9,0.7l-3.1,2.5c-0.1,0.1-0.2,0.2-0.3,0.3
		c-7.6,6.5-8.1,18-1,25.1L469,449.4c10.8,10.8,29.2,3.1,29.2-12.1V205.5C498.2,195.7,489.9,188,480.2,188.5z M469,574.6L305.1,738.5
		c-7.2,7.2-6.5,19,1.4,25.4c0.7,0.6,1.5,1.2,2.3,1.8c0.7,0.6,1.5,1.2,2.3,1.8c0.8,0.6,1.5,1.2,2.3,1.8c0.8,0.6,1.5,1.2,2.3,1.8
		c1.3,1,2.6,2,3.9,2.9c0.7,0.5,1.4,1,2.1,1.5c1.5,1.1,2.9,2.1,4.4,3.2c0.4,0.3,0.8,0.6,1.2,0.8c0.4,0.3,0.9,0.6,1.3,0.9
		c0.1,0.1,0.2,0.2,0.4,0.2c0.5,0.3,1,0.7,1.5,1c1,0.7,1.9,1.3,2.9,1.9c1,0.6,1.9,1.3,2.9,1.9c1,0.6,2,1.3,3,1.9c1,0.6,2,1.2,3,1.8
		c0.9,0.6,1.8,1.1,2.7,1.7c1.1,0.7,2.2,1.3,3.3,1.9c0.7,0.4,1.5,0.9,2.3,1.3c1.3,0.7,2.5,1.4,3.8,2.1c0.8,0.4,1.5,0.9,2.3,1.3
		c2.3,1.3,4.6,2.5,7,3.7c1,0.5,2.1,1.1,3.1,1.6c2.4,1.2,4.9,2.4,7.4,3.6c0.7,0.3,1.4,0.7,2.2,1c1.1,0.5,2.1,1,3.2,1.5
		c0.1,0.1,0.3,0.1,0.5,0.2c0.9,0.4,1.8,0.8,2.8,1.2c1.6,0.7,3.3,1.4,5,2.1c0,0,0.1,0,0.1,0c1.2,0.5,2.4,1,3.6,1.5
		c0.2,0.1,0.4,0.2,0.6,0.2c1.3,0.5,2.6,1,3.9,1.5c0.5,0.2,1,0.4,1.5,0.6c1.5,0.6,3,1.1,4.5,1.7c0.2,0.1,0.4,0.2,0.6,0.2
		c0.5,0.2,1.1,0.4,1.7,0.6c0.2,0.1,0.4,0.1,0.6,0.2c1.3,0.4,2.6,0.9,3.9,1.3c0.2,0.1,0.3,0.1,0.5,0.2c0.5,0.2,1.1,0.4,1.7,0.5
		c0.7,0.2,1.5,0.5,2.2,0.7c0.2,0.1,0.4,0.1,0.7,0.2c0.1,0,0.2,0.1,0.3,0.1c0,0,0,0,0.1,0c0.1,0,0.1,0,0.2,0.1c0.1,0,0.3,0.1,0.4,0.1
		c0.3,0.1,0.6,0.2,0.9,0.3c1.2,0.4,2.5,0.8,3.7,1.1c0.2,0.1,0.4,0.1,0.7,0.2c1.1,0.3,2.2,0.6,3.3,0.9c1.8,0.5,3.6,1,5.4,1.5
		c0.9,0.2,1.8,0.5,2.7,0.7c0.2,0.1,0.4,0.1,0.6,0.1c0.7,0.2,1.5,0.4,2.2,0.5c0.8,0.2,1.7,0.4,2.6,0.6c0.6,0.1,1.3,0.3,1.9,0.4
		c1.3,0.3,2.5,0.6,3.8,0.9c0.1,0,0.2,0.1,0.4,0.1c1.8,0.4,3.7,0.8,5.5,1.1c0.5,0.1,1.1,0.2,1.6,0.3c1.8,0.3,3.5,0.7,5.3,1
		c0.3,0.1,0.7,0.1,1.1,0.2c1.6,0.3,3.2,0.5,4.8,0.8c0.1,0,0.3,0,0.4,0.1c1.5,0.2,3,0.4,4.5,0.7c0.3,0,0.5,0.1,0.8,0.1
		c0.5,0.1,1,0.1,1.5,0.2c0.3,0,0.6,0.1,0.9,0.1c0.8,0.1,1.6,0.2,2.3,0.3c0.3,0,0.6,0.1,1,0.1c0.9,0.1,1.8,0.2,2.8,0.3
		c0.7,0.1,1.3,0.2,2,0.2c0.7,0.1,1.4,0.1,2,0.2c0.1,0,0.1,0,0.2,0c0.1,0,0.1,0,0.2,0c0.1,0,0.3,0,0.4,0c9.7,0.5,18-7.2,18-17.1
		V586.6C498.2,571.4,479.8,563.8,469,574.6z M469,574.6L305.1,738.5c-7.2,7.2-6.5,19,1.4,25.4c0.7,0.6,1.5,1.2,2.3,1.8
		c0.7,0.6,1.5,1.2,2.3,1.8c0.8,0.6,1.5,1.2,2.3,1.8c0.8,0.6,1.5,1.2,2.3,1.8c1.3,1,2.6,2,3.9,2.9c0.7,0.5,1.4,1,2.1,1.5
		c1.5,1.1,2.9,2.1,4.4,3.2c0.4,0.3,0.8,0.6,1.2,0.8c0.4,0.3,0.9,0.6,1.3,0.9c0.1,0.1,0.2,0.2,0.4,0.2c0.5,0.3,1,0.7,1.5,1
		c1,0.7,1.9,1.3,2.9,1.9c1,0.6,1.9,1.3,2.9,1.9c1,0.6,2,1.3,3,1.9c1,0.6,2,1.2,3,1.8c0.9,0.6,1.8,1.1,2.7,1.7
		c1.1,0.7,2.2,1.3,3.3,1.9c0.7,0.4,1.5,0.9,2.3,1.3c1.3,0.7,2.5,1.4,3.8,2.1c0.8,0.4,1.5,0.9,2.3,1.3c2.3,1.3,4.6,2.5,7,3.7
		c1,0.5,2.1,1.1,3.1,1.6c2.4,1.2,4.9,2.4,7.4,3.6c0.7,0.3,1.4,0.7,2.2,1c1.1,0.5,2.1,1,3.2,1.5c0.1,0.1,0.3,0.1,0.5,0.2
		c0.9,0.4,1.8,0.8,2.8,1.2c1.6,0.7,3.3,1.4,5,2.1c0,0,0.1,0,0.1,0c1.2,0.5,2.4,1,3.6,1.5c0.2,0.1,0.4,0.2,0.6,0.2
		c1.3,0.5,2.6,1,3.9,1.5c0.5,0.2,1,0.4,1.5,0.6c1.5,0.6,3,1.1,4.5,1.7c0.2,0.1,0.4,0.2,0.6,0.2c0.5,0.2,1.1,0.4,1.7,0.6
		c0.2,0.1,0.4,0.1,0.6,0.2c1.3,0.4,2.6,0.9,3.9,1.3c0.2,0.1,0.3,0.1,0.5,0.2c0.5,0.2,1.1,0.4,1.7,0.5c0.7,0.2,1.5,0.5,2.2,0.7
		c0.2,0.1,0.4,0.1,0.7,0.2c0.1,0,0.2,0.1,0.3,0.1c0,0,0,0,0.1,0c0.1,0,0.1,0,0.2,0.1c0.1,0,0.3,0.1,0.4,0.1c0.3,0.1,0.6,0.2,0.9,0.3
		c1.2,0.4,2.5,0.8,3.7,1.1c0.2,0.1,0.4,0.1,0.7,0.2c1.1,0.3,2.2,0.6,3.3,0.9c1.8,0.5,3.6,1,5.4,1.5c0.9,0.2,1.8,0.5,2.7,0.7
		c0.2,0.1,0.4,0.1,0.6,0.1c0.7,0.2,1.5,0.4,2.2,0.5c0.8,0.2,1.7,0.4,2.6,0.6c0.6,0.1,1.3,0.3,1.9,0.4c1.3,0.3,2.5,0.6,3.8,0.9
		c0.1,0,0.2,0.1,0.4,0.1c1.8,0.4,3.7,0.8,5.5,1.1c0.5,0.1,1.1,0.2,1.6,0.3c1.8,0.3,3.5,0.7,5.3,1c0.3,0.1,0.7,0.1,1.1,0.2
		c1.6,0.3,3.2,0.5,4.8,0.8c0.1,0,0.3,0,0.4,0.1c1.5,0.2,3,0.4,4.5,0.7c0.3,0,0.5,0.1,0.8,0.1c0.5,0.1,1,0.1,1.5,0.2
		c0.3,0,0.6,0.1,0.9,0.1c0.8,0.1,1.6,0.2,2.3,0.3c0.3,0,0.6,0.1,1,0.1c0.9,0.1,1.8,0.2,2.8,0.3c0.7,0.1,1.3,0.2,2,0.2
		c0.7,0.1,1.4,0.1,2,0.2c0.1,0,0.1,0,0.2,0c0.1,0,0.1,0,0.2,0c0.1,0,0.3,0,0.4,0c9.7,0.5,18-7.2,18-17.1V586.6
		C498.2,571.4,479.8,563.8,469,574.6z M437.4,525.8H205.5c-9.8,0-17.5,8.3-17.1,18c0,0.1,0,0.3,0,0.4c0,0.1,0,0.1,0,0.2
		c0,0.1,0,0.1,0,0.2c0.1,0.7,0.1,1.4,0.2,2c0.1,0.7,0.1,1.3,0.2,2c0.1,0.9,0.2,1.8,0.3,2.8c0,0.3,0.1,0.6,0.1,1
		c0.1,0.8,0.2,1.6,0.3,2.3c0.1,0.5,0.1,1,0.2,1.5c0,0.4,0.1,0.7,0.1,1.1c0,0.4,0.1,0.7,0.2,1.1c0,0.2,0,0.4,0.1,0.6
		c0.1,1.1,0.3,2.1,0.5,3.2c0.1,0.5,0.1,0.9,0.2,1.4c0.1,0.5,0.1,0.9,0.2,1.4c0.2,1.5,0.5,2.9,0.7,4.4c0.2,1.2,0.4,2.4,0.7,3.6
		c0,0.2,0.1,0.4,0.1,0.6c0.1,0.8,0.3,1.5,0.4,2.3c0.3,1.4,0.6,2.8,0.9,4.2c0,0,0,0,0,0.1c0.1,0.6,0.3,1.3,0.4,1.9
		c0.2,1.1,0.5,2.2,0.7,3.3c0.1,0.6,0.3,1.2,0.4,1.8c0.5,2,1,4,1.5,6c0.4,1.5,0.8,3,1.2,4.4c0.2,0.8,0.4,1.6,0.7,2.4
		c0.3,1.3,0.7,2.6,1.1,3.9c0.2,0.7,0.4,1.3,0.6,2c0.3,1,0.6,2.1,0.9,3.1c0.2,0.8,0.5,1.6,0.7,2.3c0.4,1.3,0.8,2.6,1.3,3.9
		c0.6,1.9,1.3,3.8,1.9,5.6c0.7,1.9,1.3,3.7,2,5.6c0.6,1.7,1.3,3.3,1.9,5c0.1,0.2,0.1,0.3,0.2,0.5c1.5,3.7,3,7.3,4.6,10.9
		c0.7,1.6,1.4,3.2,2.2,4.8c0.1,0.2,0.2,0.4,0.3,0.6c0.8,1.8,1.7,3.6,2.5,5.3c0.8,1.8,1.7,3.5,2.6,5.3c0.9,1.7,1.8,3.5,2.7,5.2
		c0.9,1.7,1.8,3.5,2.8,5.2c0.6,1.2,1.3,2.3,2,3.5c0.4,0.7,0.8,1.5,1.3,2.2c0.7,1.3,1.5,2.6,2.3,3.8c0.4,0.6,0.7,1.2,1.1,1.8
		c0.4,0.7,0.9,1.5,1.4,2.2c0.4,0.6,0.8,1.3,1.2,1.9c1,1.5,1.9,3,2.9,4.5c0.9,1.4,1.9,2.9,2.8,4.3c0.7,1,1.3,1.9,2,2.9
		c0.6,0.8,1.2,1.7,1.7,2.5c0.1,0.1,0.2,0.2,0.2,0.4c1,1.5,2.1,2.9,3.2,4.4c0.6,0.8,1.1,1.6,1.7,2.3c0.6,0.8,1.2,1.6,1.7,2.3
		c2.4,3.1,4.8,6.1,7.2,9.2c0.1,0.1,0.2,0.2,0.3,0.3c6.5,7.6,18,8.1,25.1,1L449.5,555C460.2,544.2,452.6,525.8,437.4,525.8z
		 M449.5,469L285.5,305.1c-7.1-7.1-18.6-6.5-25.1,1c-0.1,0.1-0.2,0.2-0.3,0.3c-2.5,3-4.9,6-7.2,9.2c-1.2,1.5-2.3,3.1-3.5,4.7
		c-1.1,1.4-2.1,2.9-3.2,4.4c-0.1,0.1-0.2,0.2-0.2,0.4c-0.6,0.8-1.2,1.7-1.7,2.5c-0.7,0.9-1.3,1.9-2,2.9c-0.9,1.4-1.9,2.8-2.8,4.3
		c-1,1.5-1.9,3-2.9,4.5c-0.4,0.6-0.8,1.3-1.2,1.9c-0.4,0.7-0.9,1.5-1.4,2.2c-0.4,0.6-0.7,1.2-1.1,1.8c-0.8,1.3-1.5,2.6-2.3,3.8
		c-0.4,0.7-0.9,1.5-1.3,2.2c-0.7,1.2-1.3,2.3-2,3.5c-0.9,1.7-1.9,3.4-2.8,5.2c-0.9,1.7-1.8,3.5-2.7,5.2c-0.9,1.7-1.8,3.5-2.6,5.3
		c-0.9,1.8-1.7,3.5-2.5,5.3c-0.1,0.2-0.2,0.4-0.3,0.6c-0.7,1.6-1.4,3.2-2.2,4.8c-1.6,3.6-3.1,7.2-4.6,10.9c-0.1,0.2-0.1,0.4-0.2,0.5
		c-0.6,1.7-1.3,3.3-1.9,5c-0.7,1.9-1.4,3.7-2,5.6c-0.7,1.9-1.3,3.7-1.9,5.6c-0.4,1.3-0.9,2.6-1.3,3.9c-0.2,0.8-0.5,1.6-0.7,2.3
		c-0.3,1-0.6,2.1-0.9,3.1c-0.2,0.7-0.4,1.3-0.6,2c-0.4,1.3-0.8,2.6-1.1,3.9c-0.2,0.8-0.4,1.6-0.7,2.4c-0.4,1.5-0.8,3-1.2,4.4
		c-0.5,2-1,4-1.5,6c-0.1,0.6-0.3,1.2-0.4,1.8c-0.3,1.1-0.5,2.2-0.7,3.3c-0.1,0.6-0.3,1.2-0.4,1.9c0,0,0,0.1,0,0.1
		c-0.3,1.4-0.6,2.8-0.9,4.2c-0.2,0.7-0.3,1.5-0.4,2.3c0,0.2-0.1,0.4-0.1,0.6c-0.2,1.2-0.4,2.4-0.7,3.6c-0.3,1.5-0.5,2.9-0.7,4.4
		c-0.1,0.5-0.2,0.9-0.2,1.4c-0.1,0.5-0.2,1-0.2,1.4c-0.2,1.1-0.3,2.1-0.5,3.2c0,0.2-0.1,0.4-0.1,0.6c-0.1,0.4-0.1,0.7-0.2,1.1
		c0,0.4-0.1,0.7-0.1,1.1c-0.1,0.5-0.1,1-0.2,1.5c-0.1,0.8-0.2,1.6-0.3,2.3c0,0.3-0.1,0.6-0.1,1c-0.1,0.9-0.2,1.8-0.3,2.8
		c-0.1,0.7-0.2,1.3-0.2,2c-0.1,0.7-0.1,1.4-0.2,2c0,0.1,0,0.1,0,0.2c0,0.1,0,0.1,0,0.2c0,0.1,0,0.3,0,0.4c-0.5,9.7,7.2,18,17.1,18
		h231.8C452.6,498.2,460.2,479.8,449.5,469z M480.2,188.5c-0.1,0-0.3,0-0.4,0c-0.1,0-0.1,0-0.2,0c-0.1,0-0.1,0-0.2,0
		c-0.7,0.1-1.4,0.1-2,0.2c-0.7,0.1-1.3,0.1-2,0.2c-0.9,0.1-1.8,0.2-2.8,0.3c-0.3,0-0.6,0.1-1,0.1c-0.8,0.1-1.6,0.2-2.3,0.3
		c-0.3,0-0.6,0.1-0.9,0.1c-0.5,0.1-1,0.1-1.5,0.2c-0.3,0-0.5,0.1-0.8,0.1c-1.5,0.2-3,0.4-4.5,0.7c-0.1,0-0.3,0-0.4,0.1
		c-1.6,0.2-3.2,0.5-4.8,0.8c-0.4,0-0.7,0.1-1.1,0.2c-1.8,0.3-3.6,0.6-5.3,1c-0.5,0.1-1.1,0.2-1.6,0.3c-1.8,0.4-3.7,0.7-5.5,1.1
		c-0.1,0-0.3,0-0.4,0.1c-1.3,0.3-2.5,0.6-3.8,0.9c-0.6,0.1-1.3,0.3-1.9,0.4c-0.9,0.2-1.7,0.4-2.6,0.6c-0.7,0.2-1.5,0.3-2.2,0.5
		c-0.2,0-0.4,0.1-0.6,0.1c-0.9,0.2-1.8,0.4-2.7,0.7c-1.8,0.5-3.6,1-5.4,1.5c-1.1,0.3-2.2,0.6-3.3,0.9c-0.2,0.1-0.4,0.1-0.7,0.2
		c-1,0.3-2,0.6-3,0.9c-0.1,0-0.3,0.1-0.5,0.1c-0.1,0-0.2,0.1-0.3,0.1c0,0,0,0-0.1,0c0,0-0.1,0-0.1,0c-0.1,0-0.2,0.1-0.4,0.1
		c-0.7,0.2-1.4,0.4-2,0.6c-0.7,0.2-1.5,0.4-2.2,0.7c-0.6,0.2-1.1,0.4-1.7,0.5c-0.2,0.1-0.4,0.1-0.5,0.2c-1.3,0.4-2.6,0.9-3.9,1.3
		c-0.2,0.1-0.4,0.1-0.6,0.2c-0.6,0.2-1.1,0.4-1.7,0.6c-0.2,0.1-0.4,0.1-0.6,0.2c-1.5,0.5-3,1.1-4.5,1.7c-0.5,0.2-1,0.4-1.5,0.6
		c-1.3,0.5-2.6,1-3.9,1.5c-0.2,0.1-0.4,0.2-0.6,0.2c-1.2,0.5-2.4,1-3.6,1.5c0,0-0.1,0-0.1,0c-1.7,0.7-3.3,1.4-5,2.1
		c-0.9,0.4-1.8,0.8-2.8,1.2c-0.1,0.1-0.3,0.1-0.5,0.2c-1.1,0.5-2.1,1-3.2,1.5c-0.7,0.3-1.4,0.7-2.2,1c-2.5,1.1-4.9,2.3-7.4,3.6
		c-1,0.5-2.1,1-3.1,1.6c-2.3,1.2-4.7,2.4-7,3.7c-0.8,0.4-1.5,0.8-2.3,1.3c-1.2,0.7-2.5,1.4-3.7,2.1c0,0-0.1,0-0.1,0.1
		c-0.7,0.4-1.5,0.9-2.3,1.3c-2,1.2-4,2.4-6,3.6c-1,0.6-2,1.2-3,1.8c-0.1,0-0.2,0.1-0.3,0.2c-0.1,0.1-0.2,0.1-0.3,0.2
		c-0.6,0.4-1.2,0.8-1.8,1.2c-0.2,0.1-0.3,0.2-0.5,0.3c-1.4,0.9-2.7,1.8-4.1,2.7c-1.2,0.8-2.3,1.6-3.5,2.3c-2.3,1.6-4.6,3.2-6.9,4.8
		c-0.9,0.7-1.9,1.4-2.8,2.1c-0.9,0.7-1.9,1.4-2.8,2.1c-0.1,0.1-0.2,0.2-0.4,0.3c-0.5,0.4-1.1,0.8-1.6,1.2c-0.2,0.2-0.5,0.4-0.7,0.6
		c-0.5,0.3-0.9,0.7-1.4,1.1c-0.5,0.4-1.1,0.8-1.6,1.3c-0.3,0.2-0.6,0.5-0.9,0.7l-3.1,2.5c-0.1,0.1-0.2,0.2-0.3,0.3
		c-7.6,6.5-8.1,18-1,25.1L469,449.4c10.8,10.8,29.2,3.1,29.2-12.1V205.5C498.2,195.7,489.9,188,480.2,188.5z M469,574.6L305.1,738.5
		c-7.2,7.2-6.5,19,1.4,25.4c0.7,0.6,1.5,1.2,2.3,1.8c0.7,0.6,1.5,1.2,2.3,1.8c0.8,0.6,1.5,1.2,2.3,1.8c0.8,0.6,1.5,1.2,2.3,1.8
		c1.3,1,2.6,2,3.9,2.9c0.7,0.5,1.4,1,2.1,1.5c1.5,1.1,2.9,2.1,4.4,3.2c0.4,0.3,0.8,0.6,1.2,0.8c0.4,0.3,0.9,0.6,1.3,0.9
		c0.1,0.1,0.2,0.2,0.4,0.2c0.5,0.3,1,0.7,1.5,1c1,0.7,1.9,1.3,2.9,1.9c1,0.6,1.9,1.3,2.9,1.9c1,0.6,2,1.3,3,1.9c1,0.6,2,1.2,3,1.8
		c0.9,0.6,1.8,1.1,2.7,1.7c1.1,0.7,2.2,1.3,3.3,1.9c0.7,0.4,1.5,0.9,2.3,1.3c1.3,0.7,2.5,1.4,3.8,2.1c0.8,0.4,1.5,0.9,2.3,1.3
		c2.3,1.3,4.6,2.5,7,3.7c1,0.5,2.1,1.1,3.1,1.6c2.4,1.2,4.9,2.4,7.4,3.6c0.7,0.3,1.4,0.7,2.2,1c1.1,0.5,2.1,1,3.2,1.5
		c0.1,0.1,0.3,0.1,0.5,0.2c0.9,0.4,1.8,0.8,2.8,1.2c1.6,0.7,3.3,1.4,5,2.1c0,0,0.1,0,0.1,0c1.2,0.5,2.4,1,3.6,1.5
		c0.2,0.1,0.4,0.2,0.6,0.2c1.3,0.5,2.6,1,3.9,1.5c0.5,0.2,1,0.4,1.5,0.6c1.5,0.6,3,1.1,4.5,1.7c0.2,0.1,0.4,0.2,0.6,0.2
		c0.5,0.2,1.1,0.4,1.7,0.6c0.2,0.1,0.4,0.1,0.6,0.2c1.3,0.4,2.6,0.9,3.9,1.3c0.2,0.1,0.3,0.1,0.5,0.2c0.5,0.2,1.1,0.4,1.7,0.5
		c0.7,0.2,1.5,0.5,2.2,0.7c0.2,0.1,0.4,0.1,0.7,0.2c0.1,0,0.2,0.1,0.3,0.1c0,0,0,0,0.1,0c0.1,0,0.1,0,0.2,0.1c0.1,0,0.3,0.1,0.4,0.1
		c0.3,0.1,0.6,0.2,0.9,0.3c1.2,0.4,2.5,0.8,3.7,1.1c0.2,0.1,0.4,0.1,0.7,0.2c1.1,0.3,2.2,0.6,3.3,0.9c1.8,0.5,3.6,1,5.4,1.5
		c0.9,0.2,1.8,0.5,2.7,0.7c0.2,0.1,0.4,0.1,0.6,0.1c0.7,0.2,1.5,0.4,2.2,0.5c0.8,0.2,1.7,0.4,2.6,0.6c0.6,0.1,1.3,0.3,1.9,0.4
		c1.3,0.3,2.5,0.6,3.8,0.9c0.1,0,0.2,0.1,0.4,0.1c1.8,0.4,3.7,0.8,5.5,1.1c0.5,0.1,1.1,0.2,1.6,0.3c1.8,0.3,3.5,0.7,5.3,1
		c0.3,0.1,0.7,0.1,1.1,0.2c1.6,0.3,3.2,0.5,4.8,0.8c0.1,0,0.3,0,0.4,0.1c1.5,0.2,3,0.4,4.5,0.7c0.3,0,0.5,0.1,0.8,0.1
		c0.5,0.1,1,0.1,1.5,0.2c0.3,0,0.6,0.1,0.9,0.1c0.8,0.1,1.6,0.2,2.3,0.3c0.3,0,0.6,0.1,1,0.1c0.9,0.1,1.8,0.2,2.8,0.3
		c0.7,0.1,1.3,0.2,2,0.2c0.7,0.1,1.4,0.1,2,0.2c0.1,0,0.1,0,0.2,0c0.1,0,0.1,0,0.2,0c0.1,0,0.3,0,0.4,0c9.7,0.5,18-7.2,18-17.1
		V586.6C498.2,571.4,479.8,563.8,469,574.6z M437.4,525.8H205.5c-9.8,0-17.5,8.3-17.1,18c0,0.1,0,0.3,0,0.4c0,0.1,0,0.1,0,0.2
		c0,0.1,0,0.1,0,0.2c0.1,0.7,0.1,1.4,0.2,2c0.1,0.7,0.1,1.3,0.2,2c0.1,0.9,0.2,1.8,0.3,2.8c0,0.3,0.1,0.6,0.1,1
		c0.1,0.8,0.2,1.6,0.3,2.3c0.1,0.5,0.1,1,0.2,1.5c0,0.4,0.1,0.7,0.1,1.1c0,0.4,0.1,0.7,0.2,1.1c0,0.2,0,0.4,0.1,0.6
		c0.1,1.1,0.3,2.1,0.5,3.2c0.1,0.5,0.1,0.9,0.2,1.4c0.1,0.5,0.1,0.9,0.2,1.4c0.2,1.5,0.5,2.9,0.7,4.4c0.2,1.2,0.4,2.4,0.7,3.6
		c0,0.2,0.1,0.4,0.1,0.6c0.1,0.8,0.3,1.5,0.4,2.3c0.3,1.4,0.6,2.8,0.9,4.2c0,0,0,0,0,0.1c0.1,0.6,0.3,1.3,0.4,1.9
		c0.2,1.1,0.5,2.2,0.7,3.3c0.1,0.6,0.3,1.2,0.4,1.8c0.5,2,1,4,1.5,6c0.4,1.5,0.8,3,1.2,4.4c0.2,0.8,0.4,1.6,0.7,2.4
		c0.3,1.3,0.7,2.6,1.1,3.9c0.2,0.7,0.4,1.3,0.6,2c0.3,1,0.6,2.1,0.9,3.1c0.2,0.8,0.5,1.6,0.7,2.3c0.4,1.3,0.8,2.6,1.3,3.9
		c0.6,1.9,1.3,3.8,1.9,5.6c0.7,1.9,1.3,3.7,2,5.6c0.6,1.7,1.3,3.3,1.9,5c0.1,0.2,0.1,0.3,0.2,0.5c1.5,3.7,3,7.3,4.6,10.9
		c0.7,1.6,1.4,3.2,2.2,4.8c0.1,0.2,0.2,0.4,0.3,0.6c0.8,1.8,1.7,3.6,2.5,5.3c0.8,1.8,1.7,3.5,2.6,5.3c0.9,1.7,1.8,3.5,2.7,5.2
		c0.9,1.7,1.8,3.5,2.8,5.2c0.6,1.2,1.3,2.3,2,3.5c0.4,0.7,0.8,1.5,1.3,2.2c0.7,1.3,1.5,2.6,2.3,3.8c0.4,0.6,0.7,1.2,1.1,1.8
		c0.4,0.7,0.9,1.5,1.4,2.2c0.4,0.6,0.8,1.3,1.2,1.9c1,1.5,1.9,3,2.9,4.5c0.9,1.4,1.9,2.9,2.8,4.3c0.7,1,1.3,1.9,2,2.9
		c0.6,0.8,1.2,1.7,1.7,2.5c0.1,0.1,0.2,0.2,0.2,0.4c1,1.5,2.1,2.9,3.2,4.4c0.6,0.8,1.1,1.6,1.7,2.3c0.6,0.8,1.2,1.6,1.7,2.3
		c2.4,3.1,4.8,6.1,7.2,9.2c0.1,0.1,0.2,0.2,0.3,0.3c6.5,7.6,18,8.1,25.1,1L449.5,555C460.2,544.2,452.6,525.8,437.4,525.8z
		 M449.5,469L285.5,305.1c-7.1-7.1-18.6-6.5-25.1,1c-0.1,0.1-0.2,0.2-0.3,0.3c-2.5,3-4.9,6-7.2,9.2c-1.2,1.5-2.3,3.1-3.5,4.7
		c-1.1,1.4-2.1,2.9-3.2,4.4c-0.1,0.1-0.2,0.2-0.2,0.4c-0.6,0.8-1.2,1.7-1.7,2.5c-0.7,0.9-1.3,1.9-2,2.9c-0.9,1.4-1.9,2.8-2.8,4.3
		c-1,1.5-1.9,3-2.9,4.5c-0.4,0.6-0.8,1.3-1.2,1.9c-0.4,0.7-0.9,1.5-1.4,2.2c-0.4,0.6-0.7,1.2-1.1,1.8c-0.8,1.3-1.5,2.6-2.3,3.8
		c-0.4,0.7-0.9,1.5-1.3,2.2c-0.7,1.2-1.3,2.3-2,3.5c-0.9,1.7-1.9,3.4-2.8,5.2c-0.9,1.7-1.8,3.5-2.7,5.2c-0.9,1.7-1.8,3.5-2.6,5.3
		c-0.9,1.8-1.7,3.5-2.5,5.3c-0.1,0.2-0.2,0.4-0.3,0.6c-0.7,1.6-1.4,3.2-2.2,4.8c-1.6,3.6-3.1,7.2-4.6,10.9c-0.1,0.2-0.1,0.4-0.2,0.5
		c-0.6,1.7-1.3,3.3-1.9,5c-0.7,1.9-1.4,3.7-2,5.6c-0.7,1.9-1.3,3.7-1.9,5.6c-0.4,1.3-0.9,2.6-1.3,3.9c-0.2,0.8-0.5,1.6-0.7,2.3
		c-0.3,1-0.6,2.1-0.9,3.1c-0.2,0.7-0.4,1.3-0.6,2c-0.4,1.3-0.8,2.6-1.1,3.9c-0.2,0.8-0.4,1.6-0.7,2.4c-0.4,1.5-0.8,3-1.2,4.4
		c-0.5,2-1,4-1.5,6c-0.1,0.6-0.3,1.2-0.4,1.8c-0.3,1.1-0.5,2.2-0.7,3.3c-0.1,0.6-0.3,1.2-0.4,1.9c0,0,0,0.1,0,0.1
		c-0.3,1.4-0.6,2.8-0.9,4.2c-0.2,0.7-0.3,1.5-0.4,2.3c0,0.2-0.1,0.4-0.1,0.6c-0.2,1.2-0.4,2.4-0.7,3.6c-0.3,1.5-0.5,2.9-0.7,4.4
		c-0.1,0.5-0.2,0.9-0.2,1.4c-0.1,0.5-0.2,1-0.2,1.4c-0.2,1.1-0.3,2.1-0.5,3.2c0,0.2-0.1,0.4-0.1,0.6c-0.1,0.4-0.1,0.7-0.2,1.1
		c0,0.4-0.1,0.7-0.1,1.1c-0.1,0.5-0.1,1-0.2,1.5c-0.1,0.8-0.2,1.6-0.3,2.3c0,0.3-0.1,0.6-0.1,1c-0.1,0.9-0.2,1.8-0.3,2.8
		c-0.1,0.7-0.2,1.3-0.2,2c-0.1,0.7-0.1,1.4-0.2,2c0,0.1,0,0.1,0,0.2c0,0.1,0,0.1,0,0.2c0,0.1,0,0.3,0,0.4c-0.5,9.7,7.2,18,17.1,18
		h231.8C452.6,498.2,460.2,479.8,449.5,469z M437.4,525.8H205.5c-9.8,0-17.5,8.3-17.1,18c0,0.1,0,0.3,0,0.4c0,0.1,0,0.1,0,0.2
		c0,0.1,0,0.1,0,0.2c0.1,0.7,0.1,1.4,0.2,2c0.1,0.7,0.1,1.3,0.2,2c0.1,0.9,0.2,1.8,0.3,2.8c0,0.3,0.1,0.6,0.1,1
		c0.1,0.8,0.2,1.6,0.3,2.3c0.1,0.5,0.1,1,0.2,1.5c0,0.4,0.1,0.7,0.1,1.1c0,0.4,0.1,0.7,0.2,1.1c0,0.2,0,0.4,0.1,0.6
		c0.1,1.1,0.3,2.1,0.5,3.2c0.1,0.5,0.1,0.9,0.2,1.4c0.1,0.5,0.1,0.9,0.2,1.4c0.2,1.5,0.5,2.9,0.7,4.4c0.2,1.2,0.4,2.4,0.7,3.6
		c0,0.2,0.1,0.4,0.1,0.6c0.1,0.8,0.3,1.5,0.4,2.3c0.3,1.4,0.6,2.8,0.9,4.2c0,0,0,0,0,0.1c0.1,0.6,0.3,1.3,0.4,1.9
		c0.2,1.1,0.5,2.2,0.7,3.3c0.1,0.6,0.3,1.2,0.4,1.8c0.5,2,1,4,1.5,6c0.4,1.5,0.8,3,1.2,4.4c0.2,0.8,0.4,1.6,0.7,2.4
		c0.3,1.3,0.7,2.6,1.1,3.9c0.2,0.7,0.4,1.3,0.6,2c0.3,1,0.6,2.1,0.9,3.1c0.2,0.8,0.5,1.6,0.7,2.3c0.4,1.3,0.8,2.6,1.3,3.9
		c0.6,1.9,1.3,3.8,1.9,5.6c0.7,1.9,1.3,3.7,2,5.6c0.6,1.7,1.3,3.3,1.9,5c0.1,0.2,0.1,0.3,0.2,0.5c1.5,3.7,3,7.3,4.6,10.9
		c0.7,1.6,1.4,3.2,2.2,4.8c0.1,0.2,0.2,0.4,0.3,0.6c0.8,1.8,1.7,3.6,2.5,5.3c0.8,1.8,1.7,3.5,2.6,5.3c0.9,1.7,1.8,3.5,2.7,5.2
		c0.9,1.7,1.8,3.5,2.8,5.2c0.6,1.2,1.3,2.3,2,3.5c0.4,0.7,0.8,1.5,1.3,2.2c0.7,1.3,1.5,2.6,2.3,3.8c0.4,0.6,0.7,1.2,1.1,1.8
		c0.4,0.7,0.9,1.5,1.4,2.2c0.4,0.6,0.8,1.3,1.2,1.9c1,1.5,1.9,3,2.9,4.5c0.9,1.4,1.9,2.9,2.8,4.3c0.7,1,1.3,1.9,2,2.9
		c0.6,0.8,1.2,1.7,1.7,2.5c0.1,0.1,0.2,0.2,0.2,0.4c1,1.5,2.1,2.9,3.2,4.4c0.6,0.8,1.1,1.6,1.7,2.3c0.6,0.8,1.2,1.6,1.7,2.3
		c2.4,3.1,4.8,6.1,7.2,9.2c0.1,0.1,0.2,0.2,0.3,0.3c6.5,7.6,18,8.1,25.1,1L449.5,555C460.2,544.2,452.6,525.8,437.4,525.8z
		 M449.5,469L285.5,305.1c-7.1-7.1-18.6-6.5-25.1,1c-0.1,0.1-0.2,0.2-0.3,0.3c-2.5,3-4.9,6-7.2,9.2c-1.2,1.5-2.3,3.1-3.5,4.7
		c-1.1,1.4-2.1,2.9-3.2,4.4c-0.1,0.1-0.2,0.2-0.2,0.4c-0.6,0.8-1.2,1.7-1.7,2.5c-0.7,0.9-1.3,1.9-2,2.9c-0.9,1.4-1.9,2.8-2.8,4.3
		c-1,1.5-1.9,3-2.9,4.5c-0.4,0.6-0.8,1.3-1.2,1.9c-0.4,0.7-0.9,1.5-1.4,2.2c-0.4,0.6-0.7,1.2-1.1,1.8c-0.8,1.3-1.5,2.6-2.3,3.8
		c-0.4,0.7-0.9,1.5-1.3,2.2c-0.7,1.2-1.3,2.3-2,3.5c-0.9,1.7-1.9,3.4-2.8,5.2c-0.9,1.7-1.8,3.5-2.7,5.2c-0.9,1.7-1.8,3.5-2.6,5.3
		c-0.9,1.8-1.7,3.5-2.5,5.3c-0.1,0.2-0.2,0.4-0.3,0.6c-0.7,1.6-1.4,3.2-2.2,4.8c-1.6,3.6-3.1,7.2-4.6,10.9c-0.1,0.2-0.1,0.4-0.2,0.5
		c-0.6,1.7-1.3,3.3-1.9,5c-0.7,1.9-1.4,3.7-2,5.6c-0.7,1.9-1.3,3.7-1.9,5.6c-0.4,1.3-0.9,2.6-1.3,3.9c-0.2,0.8-0.5,1.6-0.7,2.3
		c-0.3,1-0.6,2.1-0.9,3.1c-0.2,0.7-0.4,1.3-0.6,2c-0.4,1.3-0.8,2.6-1.1,3.9c-0.2,0.8-0.4,1.6-0.7,2.4c-0.4,1.5-0.8,3-1.2,4.4
		c-0.5,2-1,4-1.5,6c-0.1,0.6-0.3,1.2-0.4,1.8c-0.3,1.1-0.5,2.2-0.7,3.3c-0.1,0.6-0.3,1.2-0.4,1.9c0,0,0,0.1,0,0.1
		c-0.3,1.4-0.6,2.8-0.9,4.2c-0.2,0.7-0.3,1.5-0.4,2.3c0,0.2-0.1,0.4-0.1,0.6c-0.2,1.2-0.4,2.4-0.7,3.6c-0.3,1.5-0.5,2.9-0.7,4.4
		c-0.1,0.5-0.2,0.9-0.2,1.4c-0.1,0.5-0.2,1-0.2,1.4c-0.2,1.1-0.3,2.1-0.5,3.2c0,0.2-0.1,0.4-0.1,0.6c-0.1,0.4-0.1,0.7-0.2,1.1
		c0,0.4-0.1,0.7-0.1,1.1c-0.1,0.5-0.1,1-0.2,1.5c-0.1,0.8-0.2,1.6-0.3,2.3c0,0.3-0.1,0.6-0.1,1c-0.1,0.9-0.2,1.8-0.3,2.8
		c-0.1,0.7-0.2,1.3-0.2,2c-0.1,0.7-0.1,1.4-0.2,2c0,0.1,0,0.1,0,0.2c0,0.1,0,0.1,0,0.2c0,0.1,0,0.3,0,0.4c-0.5,9.7,7.2,18,17.1,18
		h231.8C452.6,498.2,460.2,479.8,449.5,469z"/>
	<path class="st1" d="M914.7,498.2c-3.4-100.9-43.8-192.3-108.2-261.2c-6.3-6.7-12.8-13.3-19.6-19.6
		c-68.9-64.3-160.3-104.8-261.2-108.2v48.8c87.4,3.4,166.7,38.4,226.7,93.9c6.8,6.3,13.3,12.8,19.6,19.6
		c55.5,60,90.5,139.3,93.9,226.6c0.2,4.6,0.3,9.2,0.3,13.8c0,4.6-0.1,9.3-0.3,13.8c-3.4,87.4-38.4,166.6-93.9,226.6
		c-6.2,6.8-12.8,13.3-19.6,19.6c-60,55.5-139.3,90.5-226.7,93.9v48.8c100.9-3.4,192.3-43.8,261.2-108.2c6.7-6.3,13.3-12.8,19.6-19.6
		c64.3-68.9,104.8-160.3,108.2-261.2c0.2-4.6,0.2-9.2,0.2-13.8C915,507.4,914.9,502.8,914.7,498.2z"/>
	<path class="st4" d="M217.4,237c-64.3,68.9-104.8,160.3-108.2,261.2c-0.2,4.6-0.2,9.2-0.2,13.8c0,4.6,0.1,9.2,0.2,13.8
		c3.4,100.9,43.8,192.3,108.2,261.2c6.3,6.7,12.8,13.3,19.6,19.6c68.9,64.3,160.3,104.8,261.2,108.2v-48.8
		c-87.4-3.4-166.7-38.4-226.7-93.9c-6.8-6.3-13.3-12.8-19.6-19.6c-55.5-60-90.5-139.3-93.9-226.6c-0.2-4.6-0.3-9.2-0.3-13.8
		c0-4.6,0.1-9.3,0.3-13.8c3.4-87.4,38.4-166.6,93.9-226.6c6.2-6.8,12.8-13.3,19.6-19.6c60-55.5,139.3-90.5,226.7-93.9v-48.8
		c-100.9,3.4-192.3,43.8-261.2,108.2C230.2,223.7,223.7,230.2,217.4,237z"/>
	<path class="st4" d="M498.2,586.6v231.8c0,9.8-8.3,17.5-18,17.1c-0.1,0-0.3,0-0.4,0c-0.1,0-0.1,0-0.2,0c-0.1,0-0.1,0-0.2,0
		c-0.7-0.1-1.4-0.1-2-0.2c-0.7-0.1-1.3-0.1-2-0.2c-0.9-0.1-1.8-0.2-2.8-0.3c-0.3,0-0.6-0.1-1-0.1c-0.8-0.1-1.6-0.2-2.3-0.3
		c-0.3,0-0.6-0.1-0.9-0.1c-0.5-0.1-1-0.1-1.5-0.2c-0.3,0-0.5-0.1-0.8-0.1c-1.5-0.2-3-0.4-4.5-0.7c-0.1,0-0.3,0-0.4-0.1
		c-1.6-0.2-3.2-0.5-4.8-0.8c-0.4,0-0.7-0.1-1.1-0.2c-1.8-0.3-3.6-0.6-5.3-1c-0.5-0.1-1.1-0.2-1.6-0.3c-1.8-0.4-3.7-0.7-5.5-1.1
		c-0.1,0-0.3,0-0.4-0.1c-1.3-0.3-2.5-0.6-3.8-0.9c-0.6-0.1-1.3-0.3-1.9-0.4c-0.9-0.2-1.7-0.4-2.6-0.6c-0.7-0.2-1.5-0.3-2.2-0.5
		c-0.2,0-0.4-0.1-0.6-0.1c-0.9-0.2-1.8-0.4-2.7-0.7c-1.8-0.5-3.6-1-5.4-1.5c-1.1-0.3-2.2-0.6-3.3-0.9c-0.2-0.1-0.4-0.1-0.7-0.2
		c-1.2-0.4-2.5-0.7-3.7-1.1c-0.3-0.1-0.6-0.2-0.9-0.3c-0.2-0.1-0.4-0.1-0.6-0.2c0,0,0,0-0.1,0c-0.1,0-0.2,0-0.3-0.1
		c-0.2-0.1-0.4-0.1-0.7-0.2c-0.7-0.2-1.5-0.4-2.2-0.7c-0.6-0.2-1.1-0.4-1.7-0.5c-0.2-0.1-0.4-0.1-0.5-0.2c-1.3-0.4-2.6-0.9-3.9-1.3
		c-0.2-0.1-0.4-0.1-0.6-0.2c-0.6-0.2-1.1-0.4-1.7-0.6c-0.2-0.1-0.4-0.1-0.6-0.2c-1.5-0.5-3-1.1-4.5-1.7c-0.5-0.2-1-0.4-1.5-0.6
		c-1.3-0.5-2.6-1-3.9-1.5c-0.2-0.1-0.4-0.2-0.6-0.2c-1.2-0.5-2.4-1-3.6-1.5c0,0-0.1,0-0.1,0c-1.7-0.7-3.3-1.4-5-2.1
		c-0.9-0.4-1.8-0.8-2.8-1.2c-0.1-0.1-0.3-0.1-0.5-0.2c-1.1-0.5-2.1-1-3.2-1.5c-0.7-0.3-1.4-0.7-2.2-1c-2.5-1.1-4.9-2.3-7.4-3.6
		c-1-0.5-2.1-1-3.1-1.6c-2.3-1.2-4.7-2.4-7-3.7c-0.8-0.4-1.5-0.8-2.3-1.3c-1.3-0.7-2.5-1.4-3.8-2.1c-0.8-0.4-1.5-0.9-2.3-1.3
		c-1.1-0.6-2.2-1.3-3.3-1.9c-0.9-0.5-1.8-1.1-2.7-1.7c-1-0.6-2-1.2-3-1.8c-1-0.6-2-1.2-3-1.9c-1-0.6-2-1.3-2.9-1.9
		c-1-0.6-1.9-1.3-2.9-1.9c-0.5-0.3-1-0.7-1.5-1c-0.1-0.1-0.2-0.1-0.4-0.2c-0.4-0.3-0.9-0.6-1.3-0.9c-0.4-0.3-0.8-0.6-1.2-0.8
		c-1.5-1-3-2.1-4.4-3.2c-0.7-0.5-1.4-1-2.1-1.5c-1.3-1-2.6-1.9-3.9-2.9c-0.8-0.6-1.5-1.2-2.3-1.8c-0.8-0.6-1.5-1.2-2.3-1.8
		c-0.8-0.6-1.5-1.2-2.3-1.8c-0.8-0.6-1.5-1.2-2.3-1.8c-7.9-6.4-8.6-18.2-1.4-25.4L469,574.6C479.8,563.8,498.2,571.4,498.2,586.6z"
		/>
	<path class="st4" d="M437.4,498.2H205.5c-9.8,0-17.5-8.3-17.1-18c0-0.1,0-0.3,0-0.4c0-0.1,0-0.1,0-0.2c0-0.1,0-0.1,0-0.2
		c0.1-0.7,0.1-1.4,0.2-2c0.1-0.7,0.1-1.3,0.2-2c0.1-0.9,0.2-1.8,0.3-2.8c0-0.3,0.1-0.6,0.1-1c0.1-0.8,0.2-1.6,0.3-2.3
		c0.1-0.5,0.1-1,0.2-1.5c0-0.4,0.1-0.7,0.1-1.1c0-0.4,0.1-0.7,0.2-1.1c0-0.2,0-0.4,0.1-0.6c0.1-1.1,0.3-2.1,0.5-3.2
		c0.1-0.5,0.1-0.9,0.2-1.4c0.1-0.5,0.1-0.9,0.2-1.4c0.2-1.5,0.5-2.9,0.7-4.4c0.2-1.2,0.4-2.4,0.7-3.6c0-0.2,0.1-0.4,0.1-0.6
		c0.1-0.8,0.3-1.5,0.4-2.3c0.3-1.4,0.6-2.8,0.9-4.2c0,0,0,0,0-0.1c0.1-0.6,0.3-1.3,0.4-1.9c0.2-1.1,0.5-2.2,0.7-3.3
		c0.1-0.6,0.3-1.2,0.4-1.8c0.5-2,1-4,1.5-6c0.4-1.5,0.8-3,1.2-4.4c0.2-0.8,0.4-1.6,0.7-2.4c0.3-1.3,0.7-2.6,1.1-3.9
		c0.2-0.7,0.4-1.3,0.6-2c0.3-1,0.6-2.1,0.9-3.1c0.2-0.8,0.5-1.6,0.7-2.3c0.4-1.3,0.8-2.6,1.3-3.9c0.6-1.9,1.3-3.8,1.9-5.6
		c0.7-1.9,1.3-3.7,2-5.6c0.6-1.7,1.3-3.3,1.9-5c0.1-0.2,0.1-0.3,0.2-0.5c1.5-3.7,3-7.3,4.6-10.9c0.7-1.6,1.4-3.2,2.2-4.8
		c0.1-0.2,0.2-0.4,0.3-0.6c0.8-1.8,1.7-3.6,2.5-5.3c0.8-1.8,1.7-3.5,2.6-5.3c0.9-1.7,1.8-3.5,2.7-5.2c0.9-1.7,1.8-3.5,2.8-5.2
		c0.6-1.2,1.3-2.3,2-3.5c0.4-0.7,0.8-1.5,1.3-2.2c0.7-1.3,1.5-2.6,2.3-3.8c0.4-0.6,0.7-1.2,1.1-1.8c0.4-0.7,0.9-1.5,1.4-2.2
		c0.4-0.6,0.8-1.3,1.2-1.9c1-1.5,1.9-3,2.9-4.5c0.9-1.4,1.9-2.9,2.8-4.3c0.7-1,1.3-1.9,2-2.9c0.6-0.8,1.2-1.7,1.7-2.5
		c0.1-0.1,0.2-0.2,0.2-0.4c1-1.5,2.1-2.9,3.2-4.4c1.1-1.6,2.3-3.1,3.5-4.7c2.4-3.1,4.8-6.1,7.2-9.2c0.1-0.1,0.2-0.2,0.3-0.3
		c6.5-7.6,18-8.1,25.1-1L449.5,469C460.2,479.8,452.6,498.2,437.4,498.2z"/>
	<path class="st4" d="M449.5,555L285.5,718.9c-7.1,7.1-18.6,6.5-25.1-1c-0.1-0.1-0.2-0.2-0.3-0.3c-2.5-3-4.9-6-7.2-9.2
		c-0.6-0.8-1.2-1.5-1.7-2.3c-0.6-0.8-1.2-1.6-1.7-2.3c-1.1-1.4-2.1-2.9-3.2-4.4c-0.1-0.1-0.2-0.2-0.2-0.4c-0.6-0.8-1.2-1.7-1.7-2.5
		c-0.7-0.9-1.3-1.9-2-2.9c-0.9-1.4-1.9-2.8-2.8-4.3c-1-1.5-1.9-3-2.9-4.5c-0.4-0.6-0.8-1.3-1.2-1.9c-0.4-0.7-0.9-1.5-1.4-2.2
		c-0.4-0.6-0.7-1.2-1.1-1.8c-0.8-1.3-1.5-2.6-2.3-3.8c-0.4-0.7-0.9-1.5-1.3-2.2c-0.7-1.2-1.3-2.3-2-3.5c-0.9-1.7-1.9-3.4-2.8-5.2
		c-0.9-1.7-1.8-3.5-2.7-5.2c-0.9-1.7-1.8-3.5-2.6-5.3c-0.9-1.8-1.7-3.5-2.5-5.3c-0.1-0.2-0.2-0.4-0.3-0.6c-0.7-1.6-1.4-3.2-2.2-4.8
		c-1.6-3.6-3.1-7.2-4.6-10.9c-0.1-0.2-0.1-0.4-0.2-0.5c-0.6-1.7-1.3-3.3-1.9-5c-0.7-1.9-1.4-3.7-2-5.6c-0.7-1.9-1.3-3.7-1.9-5.6
		c-0.4-1.3-0.9-2.6-1.3-3.9c-0.2-0.8-0.5-1.6-0.7-2.3c-0.3-1-0.6-2.1-0.9-3.1c-0.2-0.7-0.4-1.3-0.6-2c-0.4-1.3-0.8-2.6-1.1-3.9
		c-0.2-0.8-0.4-1.6-0.7-2.4c-0.4-1.5-0.8-3-1.2-4.4c-0.5-2-1-4-1.5-6c-0.1-0.6-0.3-1.2-0.4-1.8c-0.3-1.1-0.5-2.2-0.7-3.3
		c-0.1-0.6-0.3-1.2-0.4-1.9c0,0,0-0.1,0-0.1c-0.3-1.4-0.6-2.8-0.9-4.2c-0.2-0.7-0.3-1.5-0.4-2.3c0-0.2-0.1-0.4-0.1-0.6
		c-0.2-1.2-0.4-2.4-0.7-3.6c-0.3-1.5-0.5-2.9-0.7-4.4c-0.1-0.5-0.2-0.9-0.2-1.4c-0.1-0.5-0.2-1-0.2-1.4c-0.2-1.1-0.3-2.1-0.5-3.2
		c0-0.2-0.1-0.4-0.1-0.6c-0.1-0.4-0.1-0.7-0.2-1.1c0-0.4-0.1-0.7-0.1-1.1c-0.1-0.5-0.1-1-0.2-1.5c-0.1-0.8-0.2-1.6-0.3-2.3
		c0-0.3-0.1-0.6-0.1-1c-0.1-0.9-0.2-1.8-0.3-2.8c-0.1-0.7-0.2-1.3-0.2-2c-0.1-0.7-0.1-1.4-0.2-2c0-0.1,0-0.1,0-0.2
		c0-0.1,0-0.1,0-0.2c0-0.1,0-0.3,0-0.4c-0.5-9.7,7.2-18,17.1-18h231.8C452.6,525.8,460.2,544.2,449.5,555z"/>
	<path class="st4" d="M498.2,205.5v231.8c0,15.2-18.4,22.8-29.2,12.1L305.1,285.5c-7.1-7.1-6.5-18.6,1-25.1c0.1-0.1,0.2-0.2,0.3-0.3
		l3.1-2.5c0.3-0.2,0.6-0.5,0.9-0.7c0.5-0.4,1.1-0.8,1.6-1.3c0.5-0.4,0.9-0.7,1.4-1.1c0.2-0.2,0.5-0.4,0.7-0.6
		c0.5-0.4,1.1-0.8,1.6-1.2c0.1-0.1,0.2-0.2,0.4-0.3c0.9-0.7,1.9-1.4,2.8-2.1c0.9-0.7,1.9-1.4,2.8-2.1c2.3-1.7,4.6-3.3,6.9-4.8
		c1.1-0.8,2.3-1.6,3.5-2.3c1.3-0.9,2.7-1.8,4.1-2.7c0.2-0.1,0.3-0.2,0.5-0.3c0.6-0.4,1.2-0.8,1.8-1.2c0.1-0.1,0.2-0.1,0.3-0.2
		c0.1-0.1,0.2-0.1,0.3-0.2c1-0.6,2-1.2,3-1.8c2-1.2,4-2.4,6-3.6c0.7-0.4,1.5-0.9,2.3-1.3c0,0,0.1,0,0.1-0.1c1.2-0.7,2.5-1.4,3.7-2.1
		c0.8-0.4,1.5-0.9,2.3-1.3c2.3-1.3,4.6-2.5,7-3.7c1-0.5,2.1-1.1,3.1-1.6c2.4-1.2,4.9-2.4,7.4-3.6c0.7-0.3,1.4-0.7,2.2-1
		c1.1-0.5,2.1-1,3.2-1.5c0.1-0.1,0.3-0.1,0.5-0.2c0.9-0.4,1.8-0.8,2.8-1.2c1.6-0.7,3.3-1.4,5-2.1c0,0,0.1,0,0.1,0
		c1.2-0.5,2.4-1,3.6-1.5c0.2-0.1,0.4-0.2,0.6-0.2c1.3-0.5,2.6-1,3.9-1.5c0.5-0.2,1-0.4,1.5-0.6c1.5-0.6,3-1.1,4.5-1.7
		c0.2-0.1,0.4-0.2,0.6-0.2c0.5-0.2,1.1-0.4,1.7-0.6c0.2-0.1,0.4-0.1,0.6-0.2c1.3-0.4,2.6-0.9,3.9-1.3c0.2-0.1,0.3-0.1,0.5-0.2
		c0.5-0.2,1.1-0.4,1.7-0.5c0.7-0.2,1.5-0.5,2.2-0.7c0.7-0.2,1.4-0.4,2-0.6c0.1,0,0.2-0.1,0.4-0.1c0,0,0,0,0.1,0c0,0,0,0,0.1,0
		c0.1,0,0.2-0.1,0.3-0.1c0.1,0,0.3-0.1,0.5-0.1c1-0.3,2-0.6,3-0.9c0.2-0.1,0.4-0.1,0.7-0.2c1.1-0.3,2.2-0.6,3.3-0.9
		c1.8-0.5,3.6-1,5.4-1.5c0.9-0.2,1.8-0.5,2.7-0.7c0.2-0.1,0.4-0.1,0.6-0.1c0.7-0.2,1.5-0.4,2.2-0.5c0.8-0.2,1.7-0.4,2.6-0.6
		c0.6-0.1,1.3-0.3,1.9-0.4c1.3-0.3,2.5-0.6,3.8-0.9c0.1,0,0.2-0.1,0.4-0.1c1.8-0.4,3.7-0.8,5.5-1.1c0.5-0.1,1.1-0.2,1.6-0.3
		c1.8-0.3,3.5-0.7,5.3-1c0.3-0.1,0.7-0.1,1.1-0.2c1.6-0.3,3.2-0.5,4.8-0.8c0.1,0,0.3,0,0.4-0.1c1.5-0.2,3-0.4,4.5-0.7
		c0.3,0,0.5-0.1,0.8-0.1c0.5-0.1,1-0.1,1.5-0.2c0.3,0,0.6-0.1,0.9-0.1c0.8-0.1,1.6-0.2,2.3-0.3c0.3,0,0.6-0.1,1-0.1
		c0.9-0.1,1.8-0.2,2.8-0.3c0.7-0.1,1.3-0.2,2-0.2c0.7-0.1,1.4-0.1,2-0.2c0.1,0,0.1,0,0.2,0c0.1,0,0.1,0,0.2,0c0.1,0,0.3,0,0.4,0
		C489.9,188,498.2,195.7,498.2,205.5z"/>
	<path class="st4" d="M498.2,586.6v231.8c0,9.8-8.3,17.5-18,17.1c-0.1,0-0.3,0-0.4,0c-0.1,0-0.1,0-0.2,0c-0.1,0-0.1,0-0.2,0
		c-0.7-0.1-1.4-0.1-2-0.2c-0.7-0.1-1.3-0.1-2-0.2c-0.9-0.1-1.8-0.2-2.8-0.3c-0.3,0-0.6-0.1-1-0.1c-0.8-0.1-1.6-0.2-2.3-0.3
		c-0.3,0-0.6-0.1-0.9-0.1c-0.5-0.1-1-0.1-1.5-0.2c-0.3,0-0.5-0.1-0.8-0.1c-1.5-0.2-3-0.4-4.5-0.7c-0.1,0-0.3,0-0.4-0.1
		c-1.6-0.2-3.2-0.5-4.8-0.8c-0.4,0-0.7-0.1-1.1-0.2c-1.8-0.3-3.6-0.6-5.3-1c-0.5-0.1-1.1-0.2-1.6-0.3c-1.8-0.4-3.7-0.7-5.5-1.1
		c-0.1,0-0.3,0-0.4-0.1c-1.3-0.3-2.5-0.6-3.8-0.9c-0.6-0.1-1.3-0.3-1.9-0.4c-0.9-0.2-1.7-0.4-2.6-0.6c-0.7-0.2-1.5-0.3-2.2-0.5
		c-0.2,0-0.4-0.1-0.6-0.1c-0.9-0.2-1.8-0.4-2.7-0.7c-1.8-0.5-3.6-1-5.4-1.5c-1.1-0.3-2.2-0.6-3.3-0.9c-0.2-0.1-0.4-0.1-0.7-0.2
		c-1.2-0.4-2.5-0.7-3.7-1.1c-0.3-0.1-0.6-0.2-0.9-0.3c-0.1,0-0.3-0.1-0.4-0.1c-0.1,0-0.2-0.1-0.3-0.1c-0.1,0-0.2,0-0.3-0.1
		c-0.2-0.1-0.4-0.1-0.7-0.2c-0.7-0.2-1.5-0.4-2.2-0.7c-0.6-0.2-1.1-0.4-1.7-0.5c-0.2-0.1-0.4-0.1-0.5-0.2c-1.3-0.4-2.6-0.9-3.9-1.3
		c-0.2-0.1-0.4-0.1-0.6-0.2c-0.6-0.2-1.1-0.4-1.7-0.6c-0.2-0.1-0.4-0.1-0.6-0.2c-1.5-0.5-3-1.1-4.5-1.7c-0.5-0.2-1-0.4-1.5-0.6
		c-1.3-0.5-2.6-1-3.9-1.5c-0.2-0.1-0.4-0.2-0.6-0.2c-1.2-0.5-2.4-1-3.6-1.5c0,0-0.1,0-0.1,0c-1.7-0.7-3.3-1.4-5-2.1
		c-0.9-0.4-1.8-0.8-2.8-1.2c-0.1-0.1-0.3-0.1-0.5-0.2c-1.1-0.5-2.1-1-3.2-1.5c-0.7-0.3-1.4-0.7-2.2-1c-2.5-1.1-4.9-2.3-7.4-3.6
		c-1-0.5-2.1-1-3.1-1.6c-2.3-1.2-4.7-2.4-7-3.7c-0.8-0.4-1.5-0.8-2.3-1.3c-1.3-0.7-2.5-1.4-3.8-2.1c-0.8-0.4-1.5-0.9-2.3-1.3
		c-1.1-0.6-2.2-1.3-3.3-1.9c-0.9-0.5-1.8-1.1-2.7-1.7c-1-0.6-2-1.2-3-1.8c-1-0.6-2-1.2-3-1.9c-1-0.6-2-1.3-2.9-1.9
		c-1-0.6-1.9-1.3-2.9-1.9c-0.5-0.3-1-0.7-1.5-1c-0.1-0.1-0.2-0.1-0.4-0.2c-0.4-0.3-0.9-0.6-1.3-0.9c-0.4-0.3-0.8-0.6-1.2-0.8
		c-1.5-1-3-2.1-4.4-3.2c-0.7-0.5-1.4-1-2.1-1.5c-1.3-1-2.6-1.9-3.9-2.9c-0.8-0.6-1.5-1.2-2.3-1.8c-0.8-0.6-1.5-1.2-2.3-1.8
		c-0.8-0.6-1.5-1.2-2.3-1.8c-0.8-0.6-1.5-1.2-2.3-1.8c-7.9-6.4-8.6-18.2-1.4-25.4L469,574.6C479.8,563.8,498.2,571.4,498.2,586.6z"
		/>
	<path class="st4" d="M437.4,498.2H205.5c-9.8,0-17.5-8.3-17.1-18c0-0.1,0-0.3,0-0.4c0-0.1,0-0.1,0-0.2c0-0.1,0-0.1,0-0.2
		c0.1-0.7,0.1-1.4,0.2-2c0.1-0.7,0.1-1.3,0.2-2c0.1-0.9,0.2-1.8,0.3-2.8c0-0.3,0.1-0.6,0.1-1c0.1-0.8,0.2-1.6,0.3-2.3
		c0.1-0.5,0.1-1,0.2-1.5c0-0.4,0.1-0.7,0.1-1.1c0-0.4,0.1-0.7,0.2-1.1c0-0.2,0-0.4,0.1-0.6c0.1-1.1,0.3-2.1,0.5-3.2
		c0.1-0.5,0.1-0.9,0.2-1.4c0.1-0.5,0.1-0.9,0.2-1.4c0.2-1.5,0.5-2.9,0.7-4.4c0.2-1.2,0.4-2.4,0.7-3.6c0-0.2,0.1-0.4,0.1-0.6
		c0.1-0.8,0.3-1.5,0.4-2.3c0.3-1.4,0.6-2.8,0.9-4.2c0,0,0,0,0-0.1c0.1-0.6,0.3-1.3,0.4-1.9c0.2-1.1,0.5-2.2,0.7-3.3
		c0.1-0.6,0.3-1.2,0.4-1.8c0.5-2,1-4,1.5-6c0.4-1.5,0.8-3,1.2-4.4c0.2-0.8,0.4-1.6,0.7-2.4c0.3-1.3,0.7-2.6,1.1-3.9
		c0.2-0.7,0.4-1.3,0.6-2c0.3-1,0.6-2.1,0.9-3.1c0.2-0.8,0.5-1.6,0.7-2.3c0.4-1.3,0.8-2.6,1.3-3.9c0.6-1.9,1.3-3.8,1.9-5.6
		c0.7-1.9,1.3-3.7,2-5.6c0.6-1.7,1.3-3.3,1.9-5c0.1-0.2,0.1-0.3,0.2-0.5c1.5-3.7,3-7.3,4.6-10.9c0.7-1.6,1.4-3.2,2.2-4.8
		c0.1-0.2,0.2-0.4,0.3-0.6c0.8-1.8,1.7-3.6,2.5-5.3c0.8-1.8,1.7-3.5,2.6-5.3c0.9-1.7,1.8-3.5,2.7-5.2c0.9-1.7,1.8-3.5,2.8-5.2
		c0.6-1.2,1.3-2.3,2-3.5c0.4-0.7,0.8-1.5,1.3-2.2c0.7-1.3,1.5-2.6,2.3-3.8c0.4-0.6,0.7-1.2,1.1-1.8c0.4-0.7,0.9-1.5,1.4-2.2
		c0.4-0.6,0.8-1.3,1.2-1.9c1-1.5,1.9-3,2.9-4.5c0.9-1.4,1.9-2.9,2.8-4.3c0.7-1,1.3-1.9,2-2.9c0.6-0.8,1.2-1.7,1.7-2.5
		c0.1-0.1,0.2-0.2,0.2-0.4c1-1.5,2.1-2.9,3.2-4.4c1.1-1.6,2.3-3.1,3.5-4.7c2.4-3.1,4.8-6.1,7.2-9.2c0.1-0.1,0.2-0.2,0.3-0.3
		c6.5-7.6,18-8.1,25.1-1L449.5,469C460.2,479.8,452.6,498.2,437.4,498.2z"/>
	<path class="st4" d="M449.5,555L285.5,718.9c-7.1,7.1-18.6,6.5-25.1-1c-0.1-0.1-0.2-0.2-0.3-0.3c-2.5-3-4.9-6-7.2-9.2
		c-0.6-0.8-1.2-1.5-1.7-2.3c-0.6-0.8-1.2-1.6-1.7-2.3c-1.1-1.4-2.1-2.9-3.2-4.4c-0.1-0.1-0.2-0.2-0.2-0.4c-0.6-0.8-1.2-1.7-1.7-2.5
		c-0.7-0.9-1.3-1.9-2-2.9c-0.9-1.4-1.9-2.8-2.8-4.3c-1-1.5-1.9-3-2.9-4.5c-0.4-0.6-0.8-1.3-1.2-1.9c-0.4-0.7-0.9-1.5-1.4-2.2
		c-0.4-0.6-0.7-1.2-1.1-1.8c-0.8-1.3-1.5-2.6-2.3-3.8c-0.4-0.7-0.9-1.5-1.3-2.2c-0.7-1.2-1.3-2.3-2-3.5c-0.9-1.7-1.9-3.4-2.8-5.2
		c-0.9-1.7-1.8-3.5-2.7-5.2c-0.9-1.7-1.8-3.5-2.6-5.3c-0.9-1.8-1.7-3.5-2.5-5.3c-0.1-0.2-0.2-0.4-0.3-0.6c-0.7-1.6-1.4-3.2-2.2-4.8
		c-1.6-3.6-3.1-7.2-4.6-10.9c-0.1-0.2-0.1-0.4-0.2-0.5c-0.6-1.7-1.3-3.3-1.9-5c-0.7-1.9-1.4-3.7-2-5.6c-0.7-1.9-1.3-3.7-1.9-5.6
		c-0.4-1.3-0.9-2.6-1.3-3.9c-0.2-0.8-0.5-1.6-0.7-2.3c-0.3-1-0.6-2.1-0.9-3.1c-0.2-0.7-0.4-1.3-0.6-2c-0.4-1.3-0.8-2.6-1.1-3.9
		c-0.2-0.8-0.4-1.6-0.7-2.4c-0.4-1.5-0.8-3-1.2-4.4c-0.5-2-1-4-1.5-6c-0.1-0.6-0.3-1.2-0.4-1.8c-0.3-1.1-0.5-2.2-0.7-3.3
		c-0.1-0.6-0.3-1.2-0.4-1.9c0,0,0-0.1,0-0.1c-0.3-1.4-0.6-2.8-0.9-4.2c-0.2-0.7-0.3-1.5-0.4-2.3c0-0.2-0.1-0.4-0.1-0.6
		c-0.2-1.2-0.4-2.4-0.7-3.6c-0.3-1.5-0.5-2.9-0.7-4.4c-0.1-0.5-0.2-0.9-0.2-1.4c-0.1-0.5-0.2-1-0.2-1.4c-0.2-1.1-0.3-2.1-0.5-3.2
		c0-0.2-0.1-0.4-0.1-0.6c-0.1-0.4-0.1-0.7-0.2-1.1c0-0.4-0.1-0.7-0.1-1.1c-0.1-0.5-0.1-1-0.2-1.5c-0.1-0.8-0.2-1.6-0.3-2.3
		c0-0.3-0.1-0.6-0.1-1c-0.1-0.9-0.2-1.8-0.3-2.8c-0.1-0.7-0.2-1.3-0.2-2c-0.1-0.7-0.1-1.4-0.2-2c0-0.1,0-0.1,0-0.2
		c0-0.1,0-0.1,0-0.2c0-0.1,0-0.3,0-0.4c-0.5-9.7,7.2-18,17.1-18h231.8C452.6,525.8,460.2,544.2,449.5,555z"/>
	<path class="st4" d="M498.2,205.5v231.8c0,15.2-18.4,22.8-29.2,12.1L305.1,285.5c-7.1-7.1-6.5-18.6,1-25.1c0.1-0.1,0.2-0.2,0.3-0.3
		l3.1-2.5c0.3-0.2,0.6-0.5,0.9-0.7c0.5-0.4,1.1-0.8,1.6-1.3c0.5-0.4,0.9-0.7,1.4-1.1c0.2-0.2,0.5-0.4,0.7-0.6
		c0.5-0.4,1.1-0.8,1.6-1.2c0.1-0.1,0.2-0.2,0.4-0.3c0.9-0.7,1.9-1.4,2.8-2.1c0.9-0.7,1.9-1.4,2.8-2.1c2.3-1.7,4.6-3.3,6.9-4.8
		c1.1-0.8,2.3-1.6,3.5-2.3c1.3-0.9,2.7-1.8,4.1-2.7c0.2-0.1,0.3-0.2,0.5-0.3c0.6-0.4,1.2-0.8,1.8-1.2c0.1-0.1,0.2-0.1,0.3-0.2
		c0.1-0.1,0.2-0.1,0.3-0.2c1-0.6,2-1.2,3-1.8c2-1.2,4-2.4,6-3.6c0.7-0.4,1.5-0.9,2.3-1.3c0,0,0.1,0,0.1-0.1c1.2-0.7,2.5-1.4,3.7-2.1
		c0.8-0.4,1.5-0.9,2.3-1.3c2.3-1.3,4.6-2.5,7-3.7c1-0.5,2.1-1.1,3.1-1.6c2.4-1.2,4.9-2.4,7.4-3.6c0.7-0.3,1.4-0.7,2.2-1
		c1.1-0.5,2.1-1,3.2-1.5c0.1-0.1,0.3-0.1,0.5-0.2c0.9-0.4,1.8-0.8,2.8-1.2c1.6-0.7,3.3-1.4,5-2.1c0,0,0.1,0,0.1,0
		c1.2-0.5,2.4-1,3.6-1.5c0.2-0.1,0.4-0.2,0.6-0.2c1.3-0.5,2.6-1,3.9-1.5c0.5-0.2,1-0.4,1.5-0.6c1.5-0.6,3-1.1,4.5-1.7
		c0.2-0.1,0.4-0.2,0.6-0.2c0.5-0.2,1.1-0.4,1.7-0.6c0.2-0.1,0.4-0.1,0.6-0.2c1.3-0.4,2.6-0.9,3.9-1.3c0.2-0.1,0.3-0.1,0.5-0.2
		c0.5-0.2,1.1-0.4,1.7-0.5c0.7-0.2,1.5-0.5,2.2-0.7c0.7-0.2,1.4-0.4,2-0.6c0.1,0,0.2-0.1,0.4-0.1c0,0,0,0,0.1,0c0,0,0,0,0.1,0
		c0.3-0.1,0.5-0.2,0.8-0.2c1-0.3,2-0.6,3-0.9c0.2-0.1,0.4-0.1,0.7-0.2c1.1-0.3,2.2-0.6,3.3-0.9c1.8-0.5,3.6-1,5.4-1.5
		c0.9-0.2,1.8-0.5,2.7-0.7c0.2-0.1,0.4-0.1,0.6-0.1c0.7-0.2,1.5-0.4,2.2-0.5c0.8-0.2,1.7-0.4,2.6-0.6c0.6-0.1,1.3-0.3,1.9-0.4
		c1.3-0.3,2.5-0.6,3.8-0.9c0.1,0,0.2-0.1,0.4-0.1c1.8-0.4,3.7-0.8,5.5-1.1c0.5-0.1,1.1-0.2,1.6-0.3c1.8-0.3,3.5-0.7,5.3-1
		c0.3-0.1,0.7-0.1,1.1-0.2c1.6-0.3,3.2-0.5,4.8-0.8c0.1,0,0.3,0,0.4-0.1c1.5-0.2,3-0.4,4.5-0.7c0.3,0,0.5-0.1,0.8-0.1
		c0.5-0.1,1-0.1,1.5-0.2c0.3,0,0.6-0.1,0.9-0.1c0.8-0.1,1.6-0.2,2.3-0.3c0.3,0,0.6-0.1,1-0.1c0.9-0.1,1.8-0.2,2.8-0.3
		c0.7-0.1,1.3-0.2,2-0.2c0.7-0.1,1.4-0.1,2-0.2c0.1,0,0.1,0,0.2,0c0.1,0,0.1,0,0.2,0c0.1,0,0.3,0,0.4,0
		C489.9,188,498.2,195.7,498.2,205.5z"/>
	<path class="st1" d="M837.1,512c0,4.7-0.1,9.3-0.3,13.9c-4.1,98.4-52,185.5-124.7,242.4c-13.2,10.3-32.5,6.4-40.9-8.1l-79-136.9
		L536,525.9v0c-5-8.6-5-19.1,0-27.7l56.2-97.4l79-136.8c8.4-14.5,27.7-18.4,40.9-8.1c72.7,56.8,120.6,143.9,124.7,242.4
		C837,502.7,837.1,507.4,837.1,512z"/>
	<path class="st1" d="M647.3,807.7c-32.4,14.8-67.6,24.5-104.6,28c-9.1,0.8-16.9-6.3-16.9-15.4V621.5c0-15.8,20.8-21.4,28.8-8
		l13.6,23.6l85.9,148.8C658.7,793.7,655.5,803.9,647.3,807.7z"/>
	<path class="st2" d="M739.3,501.1c10.4,0,19.5,4.4,24.3,10.9c-4.8,6.5-13.9,10.9-24.3,10.9c-10.4,0-19.5-4.4-24.3-10.9
		C719.9,505.5,728.9,501.1,739.3,501.1z"/>
	<path class="st2" d="M719.9,441c10-2.7,19.9-0.8,26.3,4.3c-3,7.6-10.6,14.2-20.7,16.9c-10,2.7-19.9,0.8-26.3-4.3
		C702.2,450.3,709.9,443.7,719.9,441z"/>
	<path class="st2" d="M725.6,561.9c10,2.7,17.7,9.3,20.7,16.9c-6.4,5.1-16.3,7-26.3,4.3c-10-2.7-17.7-9.3-20.7-16.9
		C705.6,561.1,715.5,559.2,725.6,561.9z"/>
	<path class="st2" d="M709.8,622.6c9.8,3.6,16.8,10.8,19.1,18.6c-6.8,4.5-16.8,5.5-26.6,2c-9.8-3.6-16.8-10.8-19.1-18.6
		C690.1,620,700.1,619,709.8,622.6z"/>
	<path class="st2" d="M702.4,380.9c9.8-3.6,19.8-2.5,26.6,2c-2.3,7.8-9.3,15-19.1,18.6c-9.8,3.6-19.8,2.5-26.6-2
		C685.6,391.7,692.6,384.5,702.4,380.9z"/>
	<path class="st1" d="M653.6,239.1l-85.3,147.8v0L556.6,407c0,0.1-0.1,0.2-0.1,0.2c-8.6,14.3-30.6,8.3-30.6-8.5V204.9
		c0-9.7,8.3-17.4,18-16.4c36.1,3.5,70.5,12.9,102.2,27.3C654.9,219.8,658.5,230.6,653.6,239.1z"/>
	<g>
		<g>
			<g>
				<path class="st3" d="M649.2,512c0,2,0,3.9-0.1,5.8c-1.8,43.4-23.8,81.6-56.9,105.4L536,525.9v0c-5-8.6-5-19.1,0-27.7l56.2-97.4
					c33,23.8,55,62,56.8,105.4C649.1,508.1,649.2,510,649.2,512z"/>
			</g>
			<g>
				<path class="st3" d="M568.2,386.9L568.2,386.9L556.6,407c0,0.1-0.1,0.2-0.1,0.2c-8.6,14.3-30.6,8.3-30.6-8.5v-23.2
					C540.8,377.1,555.1,381,568.2,386.9z"/>
			</g>
			<g>
				<path class="st3" d="M568.2,637.1c-13.2,5.9-27.4,9.8-42.4,11.3v-26.9c0-15.8,20.8-21.4,28.8-8L568.2,637.1z"/>
			</g>
		</g>
	</g>
</g>
</svg>
